<svg width="20" height="20" viewBox="0 0 20 20" fill="none" xmlns="http://www.w3.org/2000/svg">
<g clip-path="url(#clip0_95_5058)">
<path d="M6.6665 11.6667C9.42793 11.6667 11.6665 9.42811 11.6665 6.66669C11.6665 3.90526 9.42793 1.66669 6.6665 1.66669C3.90508 1.66669 1.6665 3.90526 1.6665 6.66669C1.6665 9.42811 3.90508 11.6667 6.6665 11.6667Z" stroke="white" stroke-opacity="0.75" stroke-width="1.5" stroke-linecap="round" stroke-linejoin="round"/>
<path d="M15.075 8.64166C15.8628 8.93535 16.5638 9.42294 17.1132 10.0593C17.6625 10.6957 18.0426 11.4604 18.2182 12.2826C18.3937 13.1047 18.3591 13.9579 18.1176 14.7632C17.876 15.5685 17.4353 16.2998 16.8362 16.8897C16.2371 17.4795 15.499 17.9087 14.69 18.1377C13.8811 18.3666 13.0275 18.3879 12.2081 18.1995C11.3888 18.0112 10.6301 17.6192 10.0024 17.06C9.37465 16.5007 8.89806 15.7922 8.6167 15" stroke="white" stroke-opacity="0.75" stroke-width="1.5" stroke-linecap="round" stroke-linejoin="round"/>
<path d="M5.8335 5H6.66683V8.33333" stroke="white" stroke-opacity="0.75" stroke-width="1.5" stroke-linecap="round" stroke-linejoin="round"/>
<path d="M13.9249 11.5667L14.5082 12.1583L12.1582 14.5083" stroke="white" stroke-opacity="0.75" stroke-width="1.5" stroke-linecap="round" stroke-linejoin="round"/>
</g>
<defs>
<clipPath id="clip0_95_5058">
<rect width="20" height="20" fill="white"/>
</clipPath>
</defs>
</svg>
