<svg width="64" height="64" viewBox="0 0 64 64" fill="none" xmlns="http://www.w3.org/2000/svg">
<path d="M0.799658 33.6355C0.79727 33.3734 0.80115 33.1482 0.835149 32.8899C1.05112 32.8713 1.23697 32.8856 1.50577 32.9064C1.30912 32.5467 1.15424 32.2634 0.991002 31.9543C0.855484 31.5979 1.10517 31.7428 1.19402 31.7828C1.45977 31.9023 1.71241 32.0511 2.00764 32.2084C2.11447 31.5548 2.20945 30.9737 2.31112 30.3598C2.35433 29.8582 2.16144 29.5043 1.78638 29.2327C1.59302 29.0927 1.41303 28.9343 1.21714 28.7562C1.09966 28.4303 0.992035 28.1323 0.884414 27.8343C0.866926 27.6417 0.849438 27.4491 0.823784 27.226C0.832372 26.9066 0.809698 26.6083 0.875794 26.3311C0.959662 25.9794 1.07728 25.6238 1.25071 25.3087C1.44222 24.9608 1.62456 24.5953 1.36621 24.2671C0.76824 23.5073 0.940955 22.6603 0.986772 21.8188C1.00413 21.4999 1.01899 21.1809 1.03635 20.7883C1.04109 20.2063 1.04446 19.6979 1.05551 19.1549C1.07058 18.6087 1.07797 18.0973 1.09376 17.5494C1.0971 17.0066 1.09206 16.5001 1.09575 15.9569C1.0987 15.4071 1.09291 14.8941 1.09463 14.3449C1.08683 13.8001 1.07153 13.2914 1.061 12.7458C1.05879 12.2014 1.05183 11.6939 1.0517 11.1495C1.05383 10.6036 1.04912 10.0946 1.05069 9.54862C1.05517 9.00316 1.05337 8.49476 1.05914 7.95256C1.07661 7.40851 1.08651 6.89827 1.09641 6.38802C1.09641 5.68916 1.09641 4.99029 1.09641 4.25308C0.956402 4.25308 0.763043 4.25318 0.569683 4.25306C0.0937402 4.25276 -0.0789121 4.03917 0.0327471 3.58048C0.0608686 3.46496 0.108086 3.35409 0.149025 3.21068C0.209938 3.03566 0.296456 2.89558 0.32066 2.74545C0.365029 2.47024 0.514035 2.43817 0.794602 2.52604C0.977141 2.57339 1.10266 2.60757 1.28533 2.6573C1.38464 2.2887 1.47679 1.9467 1.58507 1.58254C1.75309 1.11231 2.11568 1.33309 2.40083 1.30809C3.22934 1.36471 3.94332 1.11898 4.52291 0.510038C4.90606 0.10748 5.03332 0.0574197 5.4191 0.148857C5.39933 0.298553 5.3793 0.450327 5.34878 0.68152C5.9668 0.698946 6.5567 0.715578 7.20775 0.722195C7.56796 0.627417 7.86702 0.542657 8.19807 0.448828C8.31177 0.62223 8.44146 0.835173 8.59125 1.03286C8.61486 1.06401 8.72945 1.02612 8.82644 1.00868C9.00962 0.830086 9.16833 0.662961 9.35649 0.464821C9.65995 0.750419 9.86897 1.26426 10.4372 0.922649C10.9773 0.946717 11.4861 0.968017 12.0242 0.999557C12.5777 1.04854 13.1098 1.19333 13.6355 0.885325C13.7898 0.755572 13.9176 0.634915 14.1065 0.456632C14.0189 1.13888 14.4261 1.12049 14.8425 1.09228C14.9604 1.08429 15.0789 1.08423 15.2327 1.08732C15.4768 1.08326 15.7136 1.12776 15.8836 1.0411C15.9879 0.987889 15.9901 0.733932 16.0502 0.52905C16.3126 0.753441 16.5581 0.963375 16.8169 1.1971C17.2409 1.77112 17.8237 1.70074 18.436 1.66389C18.9824 1.63665 19.4922 1.60204 20.0391 1.57183C20.5822 1.56681 21.0883 1.55738 21.628 1.55772C22.1841 1.68691 22.7065 1.80635 23.2711 1.93541C23.2923 1.85457 23.328 1.71879 23.3685 1.55371C23.4352 1.36922 23.4973 1.21403 23.5685 1.0357C24.0791 1.19941 24.5056 1.09329 24.7955 0.611703C25.3872 -0.09401 26.1925 0.206608 26.9275 0.127775C27.0064 0.354066 27.0759 0.553342 27.1583 0.789806C27.4484 0.560819 27.4482 0.0271869 27.9715 0.0667358C28.5063 0.050302 29.014 0.045427 29.5585 0.0338667C29.8269 0.0170289 30.0594 -0.00889634 30.29 0.00304008C30.4147 0.00949792 30.5361 0.0805778 30.6905 0.168436C30.7474 0.354633 30.7709 0.495302 30.7987 0.635074C30.8446 0.864881 30.9574 0.988477 31.2369 0.880878C31.4143 0.673339 31.5625 0.468523 31.7408 0.222081C32.0519 0.24882 32.422 0.280628 32.8145 0.330073C33.3542 0.604451 33.8721 0.6945 34.4232 0.350799C34.9699 0.26894 35.4848 0.189003 36.0263 0.113492C36.1416 0.101165 36.2303 0.0844114 36.319 0.0676576C36.4483 0.0761467 36.5776 0.0846355 36.7592 0.11242C37.0721 0.339389 37.3327 0.547061 37.61 0.777368C37.8919 1.06165 38.1572 1.32331 38.4314 1.60916C38.6097 1.96149 38.7714 2.29407 38.9543 2.61449C38.9979 2.69081 39.1125 2.72649 39.2261 2.78208C39.7708 2.64433 40.2838 2.50537 40.832 2.37043C41.6408 2.34153 41.6969 2.29129 41.7638 1.55339C41.787 1.29266 41.7982 1.06087 41.8092 0.832556C41.9974 0.793708 42.1966 0.752608 42.4251 0.708674C42.8919 0.383611 43.4058 0.375854 43.9527 0.3497C44.526 0.372788 45.062 0.396109 45.6291 0.431139C46.1704 0.63983 46.6807 0.836812 47.2092 1.05537C47.7507 1.1463 48.2738 1.21566 48.8321 1.29644C49.3752 1.34844 49.8831 1.38903 50.4122 1.44193C50.6336 1.34558 50.8984 1.28451 51.0209 1.11837C51.2776 0.769963 51.5654 0.599427 52.0229 0.703678C52.5708 0.721391 53.0889 0.727579 53.6377 0.727404C54.0554 0.611133 53.8701 0.293249 53.9095 0.0570425C54.0471 0.0579482 54.1846 0.058854 54.3733 0.0815289C54.5893 0.299508 54.7473 0.502035 54.9222 0.68885C54.993 0.764586 55.1005 0.806067 55.2276 0.869583C55.3162 0.877066 55.3686 0.87612 55.4207 0.879447C55.8602 0.90749 56.2973 0.94497 56.4382 0.361105C56.4495 0.314225 56.6685 0.317555 56.8102 0.316718C57.1223 0.539028 57.4432 0.712518 57.7002 0.954106C57.9322 1.17227 58.1345 1.22338 58.4283 1.05417C58.6046 0.989414 58.7679 0.955216 58.8929 0.866817C59.2284 0.629561 59.5599 0.422372 60.0191 0.63093C60.1917 0.663103 60.3381 0.667251 60.4763 0.703461C60.8496 0.801344 61.2193 0.912862 61.6014 1.04354C61.8371 1.24342 62.0619 1.41873 62.3055 1.6153C62.6077 1.76114 62.8911 1.88571 63.1746 2.01029C63.239 2.05603 63.2989 2.11035 63.3684 2.1461C63.7816 2.35876 63.8413 2.70696 63.7523 3.14891C63.723 3.6894 63.6893 4.19742 63.6573 4.74257C63.5159 5.07227 63.3303 5.353 63.2451 5.66153C63.188 5.86847 63.2734 6.11482 63.3132 6.36725C63.409 6.90249 63.4867 7.41403 63.5768 7.95526C63.6197 8.49378 63.6502 9.00259 63.6889 9.54724C63.7125 10.0937 63.7279 10.6044 63.7502 11.1514C63.7553 11.6955 63.7536 12.2033 63.758 12.748C63.7618 13.2954 63.7594 13.8059 63.7639 14.3536C63.7753 14.9056 63.7798 15.4205 63.7992 15.9647C63.8172 16.5013 63.8202 17.0086 63.8288 17.5531C63.7819 18.1005 63.7294 18.6107 63.6804 19.1545C63.6186 19.6964 63.5532 20.2046 63.4897 20.7485C63.4653 20.9912 63.4515 21.2009 63.4083 21.4042C63.3808 21.5335 63.3096 21.6534 63.1922 21.7795C62.7122 21.757 62.2981 21.7325 61.8112 21.7036C61.9345 22.0182 62.0291 22.2597 62.1298 22.5294C62.4837 23.08 62.4545 23.5386 61.8841 23.9179C61.7678 24.0201 61.6751 24.1139 61.5568 24.218C60.8357 24.8716 60.8065 25.0112 61.2515 25.6316C61.323 25.7679 61.3862 25.8772 61.4558 25.9975C61.7161 25.8762 61.9386 25.7725 62.1605 25.6993C62.1482 25.7811 62.1453 25.8369 62.123 25.8833C61.8096 26.5325 61.8143 26.5586 62.3729 27.0073C62.4552 27.0733 62.5433 27.132 62.6429 27.2198C62.7283 27.4318 62.8523 27.6163 62.8592 27.805C62.871 28.1321 62.8102 28.4619 62.7639 28.8169C62.6731 29.4143 62.6778 29.4216 63.1904 29.5231C63.7149 29.6634 63.4184 30.0333 63.4104 30.3539C63.3077 30.6623 63.208 30.9383 63.1073 31.2449C62.843 31.9202 62.9081 32.145 63.5281 32.6038C63.3812 32.6838 63.2531 32.7535 63.1058 32.8432C62.8611 32.8766 62.803 33.0005 62.8271 33.2126C62.8884 33.7527 62.9357 34.2944 62.9877 34.8355C63 34.9638 63.0088 35.0925 63.0233 35.2723C62.6106 35.2443 62.2372 35.2191 61.8592 35.1935C61.8877 35.8553 61.9844 35.9616 62.5579 35.987C62.7432 35.9952 62.9291 35.9895 63.1506 35.9834C63.3015 35.9906 63.4165 36.0046 63.5878 36.0255C63.5878 36.2642 63.5878 36.4965 63.595 36.7646C63.6078 37.3082 63.6134 37.8159 63.6246 38.3606C63.6426 38.9075 63.655 39.4173 63.6732 39.9643C63.683 40.5095 63.687 41.0175 63.699 41.5621C63.7187 42.1094 63.7304 42.6201 63.7483 43.1667C63.7575 43.7103 63.7604 44.2181 63.7708 44.7626C63.7828 45.3147 63.7874 45.8302 63.8061 46.3748C63.8225 46.9119 63.8249 47.4199 63.8343 47.9646C63.8419 48.5123 63.8426 49.0232 63.8529 49.5707C63.8705 50.1176 63.8786 50.6278 63.8941 51.1723C63.9035 51.7156 63.9054 52.2245 63.9136 52.7705C63.9171 53.3152 63.9142 53.8228 63.9174 54.3672C63.9256 54.9149 63.9276 55.4258 63.9396 55.973C63.9552 56.5189 63.9609 57.0283 63.9741 57.5737C63.9819 58.1183 63.9822 58.627 63.9885 59.1728C63.9921 59.718 63.9896 60.2261 63.9936 60.7711C64 61.2411 64 61.6742 64 62.1404C63.7309 62.0533 63.4982 61.978 63.212 61.882C62.6102 61.6906 62.0588 61.5253 61.6696 61.0141C61.1468 60.7867 60.6214 60.6222 60.1475 60.3631C59.5628 60.0434 58.9914 60.033 58.3557 60.2389C57.9453 60.4005 57.5667 60.563 57.1636 60.7313C56.9407 60.8442 56.9837 60.9278 57.1487 61.0376C57.5085 61.277 57.7043 61.6131 57.7093 62.0019C57.4212 62.0019 57.0957 61.9025 56.9055 62.0209C56.3702 62.3542 55.7962 62.494 55.1538 62.5652C54.6093 62.5449 54.1019 62.5298 53.5633 62.5054C53.2866 62.4384 53.0412 62.3807 52.7799 62.3018C52.5089 62.1016 52.2537 61.9226 51.973 61.7265C51.7311 61.7386 51.5125 61.7563 51.2991 61.7999C50.9944 61.8621 50.6935 61.9433 50.3619 62.0073C49.8214 61.8076 49.3101 61.6171 48.7734 61.4076C48.2283 61.5293 47.7086 61.6699 47.1579 61.8173C46.1439 62.172 45.156 62.4998 44.0848 62.5296C43.9105 62.3272 43.7532 62.1462 43.5485 61.9108C43.474 62.1964 43.429 62.3693 43.4092 62.445C43.0218 62.582 42.7072 62.6933 42.3645 62.8084C41.8235 63.0578 41.3105 63.3033 40.7665 63.5426C40.3499 63.5183 40.0683 63.3428 39.8633 63.0146C40.204 62.9702 40.4996 62.9317 40.8285 62.8975C41.0125 62.8952 41.1631 62.8886 41.3779 62.8791C41.2644 62.6811 41.1872 62.5466 41.1069 62.3823C41.026 62.3307 40.945 62.2823 40.8711 62.2915C40.3098 62.361 39.75 62.4418 39.1547 62.5138C38.6134 62.5224 38.107 62.5362 37.5707 62.5366C37.0268 62.5092 36.5129 62.4953 35.9746 62.4672C35.7982 62.511 35.5409 62.5367 35.5116 62.6324C35.3348 63.2091 34.8784 63.265 34.3645 63.2995C33.8222 63.1531 33.3138 63.0126 32.7862 62.851C32.6043 62.7331 32.4619 62.6363 32.3002 62.8631C31.9479 63.3571 31.9383 63.3495 31.3845 63.116C31.3252 63.091 31.2606 63.0783 31.1737 63.0438C30.6309 62.9073 30.113 62.787 29.5589 62.659C29.0511 62.7022 28.5787 62.7458 28.1084 62.8065C27.8417 62.8409 27.7216 62.9667 27.815 63.2695C27.8872 63.5034 27.8818 63.7614 27.8876 64C27.8017 63.9728 27.7392 63.9541 27.6593 63.9137C27.227 63.7203 26.8119 63.5487 26.3775 63.3556C26.2359 63.0267 26.1135 62.7193 25.9889 62.3825C25.8569 62.0232 25.727 61.6933 25.5856 61.3341C25.304 61.4106 25.0497 61.4797 24.7641 61.5478C24.222 61.5975 23.7113 61.6482 23.1745 61.6864C22.8723 61.5335 22.5963 61.3931 22.2478 61.2158C22.0663 61.3864 21.8301 61.6083 21.5669 61.844C21.4223 61.8424 21.2612 61.8693 21.1969 61.8026C21.082 61.6835 21.0469 61.4903 20.9393 61.3605C20.8032 61.1962 20.6279 61.0643 20.4695 60.9185C20.4247 60.9483 20.3799 60.9781 20.3351 61.0079C20.3351 61.1875 20.3278 61.3674 20.3372 61.5464C20.3464 61.7218 20.2854 61.7971 20.0899 61.7266C19.6943 61.4695 19.4323 61.0307 18.8704 60.9616C18.9435 61.231 18.9943 61.4184 19.0382 61.6121C19.0313 61.6185 19.0174 61.6312 18.9887 61.6367C18.7762 61.5451 18.5925 61.448 18.3947 61.3288C18.2232 61.1983 18.0657 61.0899 17.8193 60.9202C17.914 61.2487 17.9765 61.4655 18.039 61.6823C18.0087 61.7235 17.9785 61.7647 17.9482 61.8059C17.5683 61.6484 17.1884 61.4908 16.784 61.3153C16.4995 61.3476 16.2267 61.3641 15.9828 61.4568C15.6918 61.5675 15.4741 61.5371 15.284 61.2593C15.2138 61.1417 15.1503 61.0509 15.0481 60.9049C14.7928 61.3422 14.5012 61.354 14.1315 61.1429C13.9965 61.0659 13.7807 61.1307 13.5711 61.1294C13.192 61.2797 12.8479 61.4426 12.4933 61.5779C12.3465 61.6339 12.1773 61.631 12.0245 61.6214C12.0253 61.3816 12.0199 61.1751 12.0103 60.946C11.9781 60.916 11.9501 60.9087 11.8932 60.8975C11.7621 60.9471 11.6285 60.9757 11.5636 61.0584C11.3567 61.3216 11.1712 61.3576 10.9153 61.1118C10.7942 60.9955 10.6052 60.95 10.4469 60.8724C10.4089 60.9 10.3709 60.9275 10.3328 60.9551C10.3865 61.1282 10.4534 61.2988 10.4868 61.4758C10.4991 61.5411 10.4323 61.6213 10.3806 61.6738C9.84001 61.5884 9.32046 61.524 8.76398 61.4539C8.22035 61.4318 7.71367 61.4153 7.17597 61.3892C6.77693 61.2575 6.40889 61.1355 6.0049 61.0016C5.82489 61.0999 6.11337 61.6392 5.57142 61.5255C5.02173 61.5589 4.50292 61.6033 3.95418 61.654C3.25296 61.8777 3.25298 61.8777 2.82858 61.2934C2.77474 61.2192 2.73526 61.1098 2.66298 61.0798C2.55769 61.0361 2.42868 61.0496 2.28196 61.0458C1.9081 61.3491 1.5486 61.33 1.17067 61.1126C1.05983 61.0489 0.928078 61.0216 0.805909 60.9775C0.714779 60.9303 0.62365 60.883 0.510496 60.8225C0.494612 60.3007 0.500752 59.7923 0.500042 59.247C0.510226 58.6999 0.52726 58.1897 0.535772 57.6428C0.537731 57.0986 0.548212 56.5911 0.553319 56.0467C0.555622 55.4998 0.563298 54.99 0.564931 54.443C0.568219 53.8967 0.577551 53.3877 0.57935 52.8416C0.587059 52.2954 0.602302 51.7863 0.61104 51.2404C0.610614 50.6958 0.616694 50.1881 0.615228 49.6436C0.619962 49.0994 0.632241 48.5918 0.65146 48.0478C0.690979 48.0109 0.723558 48.0103 0.813968 48.0104C1.08137 48.0353 1.2957 48.0395 1.49944 48.0882C1.83487 48.1683 2.0465 48.0255 1.99715 47.6816C1.9353 47.2505 1.82585 46.8262 1.74369 46.3698C2.03574 45.8693 2.18981 45.3674 2.11989 44.7777C2.08626 44.2301 2.04091 43.715 2.00124 43.1641C1.9878 42.5918 2.03644 42.0703 2.36498 41.5955C2.44283 41.5332 2.49757 41.4809 2.60551 41.3777C1.98682 40.998 1.40474 40.6407 0.822661 40.2834C0.792737 40.2059 0.762813 40.1284 0.726295 40.0258C0.727727 39.4921 0.735752 38.9834 0.737779 38.4376C0.751198 37.892 0.770616 37.3833 0.78352 36.8381C0.786683 36.291 0.796361 35.7806 0.799758 35.233C0.797626 34.688 0.801777 34.1802 0.799658 33.6355ZM11.932 10.8722C11.2172 10.7851 10.5144 10.8004 9.78707 11.1137C9.45504 11.2634 9.123 11.413 8.73471 11.5758C8.20301 11.8275 7.67132 12.0791 7.10405 12.3475C7.27305 12.5077 7.42418 12.651 7.5986 12.8445C7.96944 13.228 8.34029 13.6114 8.73224 14.0423C8.8563 14.1592 8.98036 14.2762 9.12443 14.4439C9.52091 14.8538 9.91738 15.2637 10.335 15.7217C10.4601 15.8435 10.5853 15.9654 10.7354 16.1336C11.129 16.54 11.5225 16.9464 11.9365 17.4001C12.0355 17.4944 12.1346 17.5887 12.258 17.7299C12.7061 18.1889 13.1542 18.6479 13.6153 19.153C13.6627 19.1942 13.7102 19.2355 13.7799 19.3249C14.254 19.812 14.7281 20.2991 15.2129 20.8266C15.2352 20.8421 15.2575 20.8575 15.3023 20.9212C15.7931 21.4216 16.2838 21.9219 16.7958 22.4709C18.2955 24.0437 19.7953 25.6164 21.3159 27.2373C21.6034 27.5643 21.8611 27.9257 22.1869 28.2083C22.4852 28.4671 22.8572 28.6409 23.2571 28.8747C23.3426 28.8779 23.4282 28.881 23.5683 28.91C23.819 28.9679 24.0697 29.0259 24.3914 29.1003C24.1658 29.4049 23.9982 29.6312 23.8276 29.8614C24.1702 30.2045 24.4794 30.5141 24.8042 30.8733C24.903 30.9808 24.9964 31.0938 25.1015 31.1948C25.4711 31.5497 25.8598 31.8862 26.2128 32.2568C26.6284 32.693 27.0144 33.1576 27.4359 33.659C27.6243 33.8492 27.8128 34.0394 28.0255 34.2773C28.3352 34.5844 28.645 34.8916 28.9784 35.2468C29.1948 35.4591 29.4113 35.6714 29.5811 35.8379C29.775 35.6166 29.9301 35.4395 30.0965 35.319C30.3563 35.8122 30.6161 36.3055 30.8868 36.8543C31.2469 37.3743 31.607 37.8943 31.9896 38.4642C32.2748 38.7662 32.5076 39.1433 33.0117 39.2291C33.0429 38.7436 32.7519 38.5392 32.4364 38.2879C32.2625 38.1282 32.0654 37.9862 31.9256 37.8008C31.8633 37.7182 31.9165 37.5483 31.9173 37.418C32.0459 37.4326 32.2169 37.4003 32.2946 37.4709C32.4858 37.6444 32.634 37.8653 32.8145 38.1182C32.9403 38.2413 33.066 38.3644 33.2181 38.5339C33.7248 38.8995 33.7458 39.4493 33.7601 40.0606C33.7986 40.2118 33.7965 40.3949 33.8845 40.5074C34.0398 40.7058 34.2465 40.9098 34.5201 40.5237C34.8281 40.3545 34.819 40.6693 34.8662 40.7903C35.0716 41.3171 35.3502 41.7203 36.0297 41.6938C36.0564 41.6928 36.0832 41.6917 36.1544 41.7336C36.4117 41.8086 36.4904 41.9357 36.4343 42.2324C36.3728 42.558 36.1121 42.971 36.6388 43.2606C36.9525 43.5718 37.2662 43.8829 37.5997 44.2418C37.7831 44.4295 37.9664 44.6172 38.172 44.8539C38.5111 45.2139 38.8502 45.5739 39.2099 45.982C39.3415 46.1209 39.4731 46.2598 39.6251 46.4475C40.0129 46.8634 40.4007 47.2794 40.8074 47.741C40.8999 47.8335 40.9924 47.926 41.1076 48.0683C41.5325 48.5081 41.9573 48.948 42.4003 49.431C42.4686 49.4937 42.537 49.5563 42.633 49.6664C43.0879 50.0962 43.5428 50.526 44.0228 50.999C44.1144 51.0706 44.206 51.1421 44.3256 51.2603C44.7484 51.5344 45.1712 51.8086 45.6665 52.1028C46.1739 52.105 46.6812 52.1072 47.2587 52.1367C47.772 52.1603 48.2853 52.1838 48.8703 52.2267C49.3758 52.2402 49.8813 52.2538 50.4466 52.2941C50.9625 52.2545 51.4784 52.2149 52.0565 52.1769C52.5857 52.0454 53.0593 51.8522 53.1679 51.1701C53.5762 50.1148 53.9845 49.0595 54.4323 47.9642C54.6275 47.4444 54.8228 46.9245 55.048 46.354C55.3371 45.3037 55.6262 44.2533 55.9508 43.1531C56.0163 42.6359 56.0818 42.1186 56.1654 41.537C56.1895 41.1546 56.2277 40.7723 56.2284 40.3899C56.2286 40.2817 56.146 40.1338 56.0552 40.0714C55.239 39.5103 54.4124 38.9643 53.5654 38.3932C53.5654 38.3932 53.5347 38.3868 53.5021 38.3425C52.9976 38.017 52.4931 37.6915 51.9557 37.3241C51.7084 37.145 51.4612 36.9659 51.1804 36.7405C50.9373 36.647 50.6967 36.4835 50.4505 36.4747C49.9262 36.4557 49.3983 36.5082 48.8731 36.5477C48.2448 36.595 48.0896 36.485 47.9472 35.8023C48.3026 35.8023 48.6483 35.8023 49.1116 35.8023C48.9402 35.5158 48.8239 35.3216 48.684 35.0788C48.2179 34.7686 47.7519 34.4584 47.2544 34.1039C46.9791 33.9323 46.7037 33.7608 46.3955 33.5425C46.1287 33.3717 45.8619 33.201 45.5671 32.9846C45.0643 32.6568 44.5615 32.329 44.0287 31.9586C43.4831 31.6014 42.9375 31.2441 42.3538 30.8477C42.1105 30.6916 41.8671 30.5356 41.591 30.3349C41.3277 30.164 41.0644 29.9931 40.7707 29.7784C39.7482 29.0973 38.7257 28.4161 37.6699 27.6911C37.4086 27.5244 37.1472 27.3577 36.8562 27.1454C36.5705 26.9569 36.2847 26.7685 35.9577 26.5414C34.91 25.8392 33.8624 25.137 32.7817 24.3958C32.5744 24.2608 32.3672 24.1259 32.1297 23.9467C31.8201 23.7457 31.5105 23.5447 31.1717 23.2991C30.1146 22.5918 29.0576 21.8844 27.9729 21.1325C27.7455 20.9852 27.5181 20.8379 27.2582 20.6489C27.0013 20.4807 26.7445 20.3124 26.4574 20.0995C25.9758 19.772 25.5005 19.4347 25.0111 19.1195C24.4128 18.7343 23.8026 18.3677 23.1545 17.9544C22.7703 17.8642 22.3841 17.781 22.0029 17.6793C21.8921 17.6497 21.7431 17.5925 21.7007 17.5047C21.3838 16.8499 21.3909 16.8468 20.7011 16.9807C20.6399 16.9925 20.5773 16.9971 20.4763 17.0101C20.5119 16.5798 20.4303 16.2183 19.9685 15.9989C19.7442 15.7913 19.5626 15.938 19.3669 16.0601C19.1958 16.1667 18.9975 16.3228 18.8847 15.9225C18.7579 15.5383 18.6311 15.1541 18.4716 14.7261C18.2371 14.5823 18.0027 14.4385 17.7362 14.2524C17.4578 14.079 17.1795 13.9055 16.8701 13.6871C15.78 13.0166 14.6898 12.346 13.5607 11.6368C13.2537 11.4623 12.9467 11.2879 12.605 11.0692C12.4026 11.0096 12.2002 10.9499 11.932 10.8722ZM42.3222 12.4482C41.9992 12.5337 41.6762 12.6193 41.2928 12.7012C41.1256 12.7526 40.9585 12.8039 40.7261 12.8546C40.2149 12.9904 39.7037 13.1263 39.1278 13.2606C38.8079 13.345 38.4879 13.4295 38.0762 13.5382C38.5074 13.8599 38.8526 14.1174 39.2176 14.3957C39.2176 14.3957 39.2453 14.4027 39.2771 14.4479C39.7822 14.8295 40.2874 15.2111 40.8193 15.6378C40.991 15.7584 41.1628 15.879 41.364 16.0453C41.7062 16.2958 42.0483 16.5462 42.4186 16.8418C42.7738 17.0944 43.129 17.3471 43.5169 17.6448C44.2082 18.1527 44.8995 18.6607 45.6229 19.2059C45.6643 19.2308 45.7058 19.2558 45.7761 19.3253C46.2464 19.6608 46.7167 19.9963 47.2152 20.3759C47.5641 20.6348 47.913 20.8938 48.2735 21.1614C48.3529 21.0431 48.4052 20.9652 48.4888 20.8406C48.684 21.0639 48.9484 21.2303 48.9936 21.4432C49.1336 22.1036 49.7593 22.1781 50.1229 22.5784C50.5283 21.9141 50.9445 20.3116 51.0476 19.1307C51.1433 18.6177 51.2389 18.1047 51.3559 17.5311C51.4506 17.0155 51.5452 16.4999 51.6618 15.9204C51.7204 15.4603 51.7789 15.0002 51.843 14.4965C51.4836 14.6763 51.1896 14.8233 50.8199 15.0083C50.8902 14.7623 50.9293 14.6255 51.0084 14.4497C51.1917 14.148 51.3751 13.8463 51.5755 13.5164C50.6621 12.8519 49.7299 12.1739 48.7669 11.4502C48.2913 11.0597 47.7459 11.1177 47.1309 11.2C46.6159 11.3132 46.101 11.4263 45.5201 11.5506C45.0119 11.6989 44.5037 11.8473 43.933 11.9943C43.418 12.1441 42.903 12.294 42.3222 12.4482ZM20.162 51.7753C20.6299 51.5874 21.0978 51.3994 21.5697 51.2336C21.5697 51.2336 21.5922 51.2343 21.6559 51.224C22.171 51.0331 22.6862 50.8421 23.263 50.648C23.6584 50.5093 24.0537 50.3706 24.5498 50.1965C23.185 48.8621 21.8777 47.5839 20.5449 46.2607C20.3935 46.1191 20.2422 45.9775 20.0682 45.787C17.4393 43.2115 14.8712 40.5716 12.0424 38.1328C11.9852 38.3043 11.9445 38.4264 11.8662 38.5891C11.688 39.0207 11.5099 39.4522 11.2938 39.9263C11.0521 40.4849 10.8104 41.0434 10.5333 41.645C10.4632 41.8171 10.3931 41.9891 10.2786 42.1938C10.1329 42.5296 9.9873 42.8654 9.80212 43.24C9.57738 43.7612 9.35264 44.2823 9.08703 44.8415C8.81683 45.4322 8.5065 46.0087 8.28991 46.6185C8.13388 47.0577 8.10276 47.5414 8.00772 48.0678C8.04525 48.607 8.327 48.9781 8.82398 49.2641C9.00426 49.4028 9.18454 49.5414 9.39583 49.7233C9.6996 49.954 10.0034 50.1847 10.3349 50.4619C11.107 51.0243 11.8791 51.5866 12.6987 52.1834C12.8073 51.7891 12.8874 51.4985 13.0168 51.1975C13.0497 51.201 13.0826 51.2045 13.1076 51.2791C13.1687 51.6289 13.0008 52.1096 13.6624 52.1702C14.1215 52.284 14.6033 52.3537 14.9031 52.857C15.0906 52.9812 15.2688 53.1916 15.4675 53.2133C16.0414 53.2758 16.6062 53.181 17.1765 52.8775C17.5838 52.7169 17.9911 52.5564 18.4584 52.3943C19.0066 52.1907 19.5548 51.9871 20.162 51.7753Z" fill="white"/>
</svg>
