<svg width="81" height="80" viewBox="0 0 81 80" fill="none" xmlns="http://www.w3.org/2000/svg">
<path d="M9.79966 41.6355C9.79727 41.3734 9.80115 41.1482 9.83515 40.8899C10.0511 40.8713 10.237 40.8856 10.5058 40.9064C10.3091 40.5467 10.1542 40.2634 9.991 39.9543C9.85548 39.5979 10.1052 39.7428 10.194 39.7828C10.4598 39.9023 10.7124 40.0511 11.0076 40.2084C11.1145 39.5548 11.2094 38.9737 11.3111 38.3598C11.3543 37.8582 11.1614 37.5043 10.7864 37.2327C10.593 37.0927 10.413 36.9343 10.2171 36.7562C10.0997 36.4303 9.99204 36.1323 9.88441 35.8343C9.86693 35.6417 9.84944 35.4491 9.82378 35.226C9.83237 34.9066 9.8097 34.6083 9.87579 34.3311C9.95966 33.9794 10.0773 33.6238 10.2507 33.3087C10.4422 32.9608 10.6246 32.5953 10.3662 32.2671C9.76824 31.5073 9.94095 30.6603 9.98677 29.8188C10.0041 29.4999 10.019 29.1809 10.0364 28.7883C10.0411 28.2063 10.0445 27.6979 10.0555 27.1549C10.0706 26.6087 10.078 26.0973 10.0938 25.5494C10.0971 25.0066 10.0921 24.5001 10.0957 23.9569C10.0987 23.4071 10.0929 22.8941 10.0946 22.3449C10.0868 21.8001 10.0715 21.2914 10.061 20.7458C10.0588 20.2014 10.0518 19.6939 10.0517 19.1495C10.0538 18.6036 10.0491 18.0946 10.0507 17.5486C10.0552 17.0032 10.0534 16.4948 10.0591 15.9526C10.0766 15.4085 10.0865 14.8983 10.0964 14.388C10.0964 13.6892 10.0964 12.9903 10.0964 12.2531C9.9564 12.2531 9.76304 12.2532 9.56968 12.2531C9.09374 12.2528 8.92109 12.0392 9.03275 11.5805C9.06087 11.465 9.10809 11.3541 9.14903 11.2107C9.20994 11.0357 9.29646 10.8956 9.32066 10.7455C9.36503 10.4702 9.51404 10.4382 9.7946 10.526C9.97714 10.5734 10.1027 10.6076 10.2853 10.6573C10.3846 10.2887 10.4768 9.9467 10.5851 9.58254C10.7531 9.11231 11.1157 9.33309 11.4008 9.30809C12.2293 9.36471 12.9433 9.11898 13.5229 8.51004C13.9061 8.10748 14.0333 8.05742 14.4191 8.14886C14.3993 8.29855 14.3793 8.45033 14.3488 8.68152C14.9668 8.69895 15.5567 8.71558 16.2078 8.72219C16.568 8.62742 16.867 8.54266 17.1981 8.44883C17.3118 8.62223 17.4415 8.83517 17.5913 9.03286C17.6149 9.06401 17.7294 9.02612 17.8264 9.00868C18.0096 8.83009 18.1683 8.66296 18.3565 8.46482C18.6599 8.75042 18.869 9.26426 19.4372 8.92265C19.9773 8.94672 20.4861 8.96802 21.0242 8.99956C21.5777 9.04854 22.1098 9.19333 22.6355 8.88533C22.7898 8.75557 22.9176 8.63492 23.1065 8.45663C23.0189 9.13888 23.4261 9.12049 23.8425 9.09228C23.9604 9.08429 24.0789 9.08423 24.2327 9.08732C24.4768 9.08326 24.7136 9.12776 24.8836 9.0411C24.9879 8.98789 24.9901 8.73393 25.0502 8.52905C25.3126 8.75344 25.5581 8.96338 25.8169 9.1971C26.2409 9.77112 26.8237 9.70074 27.436 9.66389C27.9824 9.63665 28.4922 9.60204 29.0391 9.57183C29.5822 9.56681 30.0883 9.55738 30.628 9.55772C31.1841 9.68691 31.7065 9.80635 32.2711 9.93541C32.2923 9.85457 32.328 9.71879 32.3685 9.55371C32.4352 9.36922 32.4973 9.21403 32.5685 9.0357C33.0791 9.19941 33.5056 9.09329 33.7955 8.6117C34.3872 7.90599 35.1925 8.20661 35.9275 8.12777C36.0064 8.35407 36.0759 8.55334 36.1583 8.78981C36.4484 8.56082 36.4482 8.02719 36.9715 8.06674C37.5063 8.0503 38.014 8.04543 38.5585 8.03387C38.8269 8.01703 39.0594 7.9911 39.29 8.00304C39.4147 8.0095 39.5361 8.08058 39.6905 8.16844C39.7474 8.35463 39.7709 8.4953 39.7987 8.63507C39.8446 8.86488 39.9574 8.98848 40.2369 8.88088C40.4143 8.67334 40.5625 8.46852 40.7408 8.22208C41.0519 8.24882 41.422 8.28063 41.8145 8.33007C42.3542 8.60445 42.8721 8.6945 43.4232 8.3508C43.9699 8.26894 44.4848 8.189 45.0263 8.11349C45.1416 8.10116 45.2303 8.08441 45.319 8.06766C45.4483 8.07615 45.5776 8.08464 45.7592 8.11242C46.0721 8.33939 46.3327 8.54706 46.61 8.77737C46.8919 9.06165 47.1572 9.32331 47.4314 9.60916C47.6097 9.96149 47.7714 10.2941 47.9543 10.6145C47.9979 10.6908 48.1125 10.7265 48.2261 10.7821C48.7708 10.6443 49.2838 10.5054 49.832 10.3704C50.6408 10.3415 50.6969 10.2913 50.7638 9.55339C50.787 9.29266 50.7982 9.06087 50.8092 8.83256C50.9974 8.79371 51.1966 8.75261 51.4251 8.70867C51.8919 8.38361 52.4058 8.37585 52.9527 8.3497C53.526 8.37279 54.062 8.39611 54.6291 8.43114C55.1704 8.63983 55.6807 8.83681 56.2092 9.05537C56.7507 9.1463 57.2738 9.21566 57.8321 9.29644C58.3752 9.34844 58.8831 9.38903 59.4122 9.44193C59.6336 9.34558 59.8984 9.28451 60.0209 9.11837C60.2776 8.76996 60.5654 8.59943 61.0229 8.70368C61.5708 8.72139 62.0889 8.72758 62.6377 8.7274C63.0554 8.61113 62.8701 8.29325 62.9095 8.05704C63.0471 8.05795 63.1846 8.05885 63.3733 8.08153C63.5893 8.29951 63.7473 8.50203 63.9222 8.68885C63.993 8.76459 64.1005 8.80607 64.2276 8.86958C64.3162 8.87707 64.3686 8.87612 64.4207 8.87945C64.8602 8.90749 65.2973 8.94497 65.4382 8.3611C65.4495 8.31423 65.6685 8.31756 65.8102 8.31672C66.1223 8.53903 66.4432 8.71252 66.7002 8.95411C66.9322 9.17227 67.1345 9.22338 67.4283 9.05417C67.6046 8.98941 67.7679 8.95522 67.8929 8.86682C68.2284 8.62956 68.5599 8.42237 69.0191 8.63093C69.1917 8.6631 69.3381 8.66725 69.4763 8.70346C69.8496 8.80134 70.2193 8.91286 70.6014 9.04354C70.8371 9.24342 71.0619 9.41873 71.3055 9.6153C71.6077 9.76114 71.8911 9.88571 72.1746 10.0103C72.239 10.056 72.2989 10.1103 72.3684 10.1461C72.7816 10.3588 72.8413 10.707 72.7523 11.1489C72.723 11.6894 72.6893 12.1974 72.6573 12.7426C72.5159 13.0723 72.3303 13.353 72.2451 13.6615C72.188 13.8685 72.2734 14.1148 72.3132 14.3672C72.409 14.9025 72.4867 15.414 72.5768 15.9553C72.6197 16.4938 72.6502 17.0026 72.6889 17.5472C72.7125 18.0937 72.7279 18.6044 72.7502 19.1514C72.7553 19.6955 72.7536 20.2033 72.758 20.748C72.7618 21.2954 72.7594 21.8059 72.7639 22.3536C72.7753 22.9056 72.7798 23.4205 72.7992 23.9647C72.8172 24.5013 72.8202 25.0086 72.8288 25.5531C72.7819 26.1005 72.7294 26.6107 72.6804 27.1545C72.6186 27.6964 72.5532 28.2046 72.4897 28.7485C72.4653 28.9912 72.4515 29.2009 72.4083 29.4042C72.3808 29.5335 72.3096 29.6534 72.1922 29.7795C71.7122 29.757 71.2981 29.7325 70.8112 29.7036C70.9345 30.0182 71.0291 30.2597 71.1298 30.5294C71.4837 31.08 71.4545 31.5386 70.8841 31.9179C70.7678 32.0201 70.6751 32.1139 70.5568 32.218C69.8357 32.8716 69.8065 33.0112 70.2515 33.6316C70.323 33.7679 70.3862 33.8772 70.4558 33.9975C70.7161 33.8762 70.9386 33.7725 71.1605 33.6993C71.1482 33.7811 71.1453 33.8369 71.123 33.8833C70.8096 34.5325 70.8143 34.5586 71.3729 35.0073C71.4552 35.0733 71.5433 35.132 71.6429 35.2198C71.7283 35.4318 71.8523 35.6163 71.8592 35.805C71.871 36.1321 71.8102 36.4619 71.7639 36.8169C71.6731 37.4143 71.6778 37.4216 72.1904 37.5231C72.7149 37.6634 72.4184 38.0333 72.4104 38.3539C72.3077 38.6623 72.208 38.9383 72.1073 39.2449C71.843 39.9202 71.9081 40.145 72.5281 40.6038C72.3812 40.6838 72.2531 40.7535 72.1058 40.8432C71.8611 40.8766 71.803 41.0005 71.8271 41.2126C71.8884 41.7527 71.9357 42.2944 71.9877 42.8355C72 42.9638 72.0088 43.0925 72.0233 43.2723C71.6106 43.2443 71.2372 43.2191 70.8592 43.1935C70.8877 43.8553 70.9844 43.9616 71.5579 43.987C71.7432 43.9952 71.9291 43.9895 72.1506 43.9834C72.3015 43.9906 72.4165 44.0046 72.5878 44.0255C72.5878 44.2642 72.5878 44.4965 72.595 44.7646C72.6078 45.3082 72.6134 45.8159 72.6246 46.3606C72.6426 46.9075 72.655 47.4173 72.6732 47.9643C72.683 48.5095 72.687 49.0175 72.699 49.5621C72.7187 50.1094 72.7304 50.6201 72.7483 51.1667C72.7575 51.7103 72.7604 52.2181 72.7708 52.7626C72.7828 53.3147 72.7874 53.8302 72.8061 54.3748C72.8225 54.9119 72.8249 55.4199 72.8343 55.9646C72.8419 56.5123 72.8426 57.0232 72.8529 57.5707C72.8705 58.1176 72.8786 58.6278 72.8941 59.1723C72.9035 59.7156 72.9054 60.2245 72.9136 60.7705C72.9171 61.3152 72.9142 61.8228 72.9174 62.3672C72.9256 62.9149 72.9276 63.4258 72.9396 63.973C72.9552 64.5189 72.9609 65.0283 72.9741 65.5737C72.9819 66.1183 72.9822 66.627 72.9885 67.1728C72.9921 67.718 72.9896 68.2261 72.9936 68.7711C73 69.2411 73 69.6742 73 70.1404C72.7309 70.0533 72.4982 69.978 72.212 69.882C71.6102 69.6906 71.0588 69.5253 70.6696 69.0141C70.1468 68.7867 69.6214 68.6222 69.1475 68.3631C68.5628 68.0434 67.9914 68.033 67.3557 68.2389C66.9453 68.4005 66.5667 68.563 66.1636 68.7313C65.9407 68.8442 65.9837 68.9278 66.1487 69.0376C66.5085 69.277 66.7043 69.6131 66.7093 70.0019C66.4212 70.0019 66.0957 69.9025 65.9055 70.0209C65.3702 70.3542 64.7962 70.494 64.1538 70.5652C63.6093 70.5449 63.1019 70.5298 62.5633 70.5054C62.2866 70.4384 62.0412 70.3807 61.7799 70.3018C61.5089 70.1016 61.2537 69.9226 60.973 69.7265C60.7311 69.7386 60.5125 69.7563 60.2991 69.7999C59.9944 69.8621 59.6935 69.9433 59.3619 70.0073C58.8214 69.8076 58.3101 69.6171 57.7734 69.4076C57.2283 69.5293 56.7086 69.6699 56.1579 69.8173C55.1439 70.172 54.156 70.4998 53.0848 70.5296C52.9105 70.3272 52.7532 70.1462 52.5485 69.9108C52.474 70.1964 52.429 70.3693 52.4092 70.445C52.0218 70.582 51.7072 70.6933 51.3645 70.8084C50.8235 71.0578 50.3105 71.3033 49.7665 71.5426C49.3499 71.5183 49.0683 71.3428 48.8633 71.0146C49.204 70.9702 49.4996 70.9317 49.8285 70.8975C50.0125 70.8952 50.1631 70.8886 50.3779 70.8791C50.2644 70.6811 50.1872 70.5466 50.1069 70.3823C50.026 70.3307 49.945 70.2823 49.8711 70.2915C49.3098 70.361 48.75 70.4418 48.1547 70.5138C47.6134 70.5224 47.107 70.5362 46.5707 70.5366C46.0268 70.5092 45.5129 70.4953 44.9746 70.4672C44.7982 70.511 44.5409 70.5367 44.5116 70.6324C44.3348 71.2091 43.8784 71.265 43.3645 71.2995C42.8222 71.1531 42.3138 71.0126 41.7862 70.851C41.6043 70.7331 41.4619 70.6363 41.3002 70.8631C40.9479 71.3571 40.9383 71.3495 40.3845 71.116C40.3252 71.091 40.2606 71.0783 40.1737 71.0438C39.6309 70.9073 39.113 70.787 38.5589 70.659C38.0511 70.7022 37.5787 70.7458 37.1084 70.8065C36.8417 70.8409 36.7216 70.9667 36.815 71.2695C36.8872 71.5034 36.8818 71.7614 36.8876 72C36.8017 71.9728 36.7392 71.9541 36.6593 71.9137C36.227 71.7203 35.8119 71.5487 35.3775 71.3556C35.2359 71.0267 35.1135 70.7193 34.9889 70.3825C34.8569 70.0232 34.727 69.6933 34.5856 69.3341C34.304 69.4106 34.0497 69.4797 33.7641 69.5478C33.222 69.5975 32.7113 69.6482 32.1745 69.6864C31.8723 69.5335 31.5963 69.3931 31.2478 69.2158C31.0663 69.3864 30.8301 69.6083 30.5669 69.844C30.4223 69.8424 30.2612 69.8693 30.1969 69.8026C30.082 69.6835 30.0469 69.4903 29.9393 69.3605C29.8032 69.1962 29.6279 69.0643 29.4695 68.9185C29.4247 68.9483 29.3799 68.9781 29.3351 69.0079C29.3351 69.1875 29.3278 69.3674 29.3372 69.5464C29.3464 69.7218 29.2854 69.7971 29.0899 69.7266C28.6943 69.4695 28.4323 69.0307 27.8704 68.9616C27.9435 69.231 27.9943 69.4184 28.0382 69.6121C28.0313 69.6185 28.0174 69.6312 27.9887 69.6367C27.7762 69.5451 27.5925 69.448 27.3947 69.3288C27.2232 69.1983 27.0657 69.0899 26.8193 68.9202C26.914 69.2487 26.9765 69.4655 27.039 69.6823C27.0087 69.7235 26.9785 69.7647 26.9482 69.8059C26.5683 69.6484 26.1884 69.4908 25.784 69.3153C25.4995 69.3476 25.2267 69.3641 24.9828 69.4568C24.6918 69.5675 24.4741 69.5371 24.284 69.2593C24.2138 69.1417 24.1503 69.0509 24.0481 68.9049C23.7928 69.3422 23.5012 69.354 23.1315 69.1429C22.9965 69.0659 22.7807 69.1307 22.5711 69.1294C22.192 69.2797 21.8479 69.4426 21.4933 69.5779C21.3465 69.6339 21.1773 69.631 21.0245 69.6214C21.0253 69.3816 21.0199 69.1751 21.0103 68.946C20.9781 68.916 20.9501 68.9087 20.8932 68.8975C20.7621 68.9471 20.6285 68.9757 20.5636 69.0584C20.3567 69.3216 20.1712 69.3576 19.9153 69.1118C19.7942 68.9955 19.6052 68.95 19.4469 68.8724C19.4089 68.9 19.3709 68.9275 19.3328 68.9551C19.3865 69.1282 19.4534 69.2988 19.4868 69.4758C19.4991 69.5411 19.4323 69.6213 19.3806 69.6738C18.84 69.5884 18.3205 69.524 17.764 69.4539C17.2204 69.4318 16.7137 69.4153 16.176 69.3892C15.7769 69.2575 15.4089 69.1355 15.0049 69.0016C14.8249 69.0999 15.1134 69.6392 14.5714 69.5255C14.0217 69.5589 13.5029 69.6033 12.9542 69.654C12.253 69.8777 12.253 69.8777 11.8286 69.2934C11.7747 69.2192 11.7353 69.1098 11.663 69.0798C11.5577 69.0361 11.4287 69.0496 11.282 69.0458C10.9081 69.3491 10.5486 69.33 10.1707 69.1126C10.0598 69.0489 9.92808 69.0216 9.80591 68.9775C9.71478 68.9303 9.62365 68.883 9.5105 68.8225C9.49461 68.3007 9.50075 67.7923 9.50004 67.247C9.51023 66.6999 9.52726 66.1897 9.53577 65.6428C9.53773 65.0986 9.54821 64.5911 9.55332 64.0467C9.55562 63.4998 9.5633 62.99 9.56493 62.443C9.56822 61.8967 9.57755 61.3877 9.57935 60.8416C9.58706 60.2954 9.6023 59.7863 9.61104 59.2404C9.61061 58.6958 9.61669 58.1881 9.61523 57.6436C9.61996 57.0994 9.63224 56.5918 9.65146 56.0478C9.69098 56.0109 9.72356 56.0103 9.81397 56.0104C10.0814 56.0353 10.2957 56.0395 10.4994 56.0882C10.8349 56.1683 11.0465 56.0255 10.9972 55.6816C10.9353 55.2505 10.8259 54.8262 10.7437 54.3698C11.0357 53.8693 11.1898 53.3674 11.1199 52.7777C11.0863 52.2301 11.0409 51.715 11.0012 51.1641C10.9878 50.5918 11.0364 50.0703 11.365 49.5955C11.4428 49.5332 11.4976 49.4809 11.6055 49.3777C10.9868 48.998 10.4047 48.6407 9.82266 48.2834C9.79274 48.2059 9.76281 48.1284 9.7263 48.0258C9.72773 47.4921 9.73575 46.9834 9.73778 46.4376C9.7512 45.892 9.77062 45.3833 9.78352 44.8381C9.78668 44.291 9.79636 43.7806 9.79976 43.233C9.79763 42.688 9.80178 42.1802 9.79966 41.6355ZM20.932 18.8722C20.2172 18.7851 19.5144 18.8004 18.7871 19.1137C18.455 19.2634 18.123 19.413 17.7347 19.5758C17.203 19.8275 16.6713 20.0791 16.1041 20.3475C16.273 20.5077 16.4242 20.651 16.5986 20.8445C16.9694 21.228 17.3403 21.6114 17.7322 22.0423C17.8563 22.1592 17.9804 22.2762 18.1244 22.4439C18.5209 22.8538 18.9174 23.2637 19.335 23.7217C19.4601 23.8435 19.5853 23.9654 19.7354 24.1336C20.129 24.54 20.5225 24.9464 20.9365 25.4001C21.0355 25.4944 21.1346 25.5887 21.258 25.7299C21.7061 26.1889 22.1542 26.6479 22.6153 27.153C22.6627 27.1942 22.7102 27.2355 22.7799 27.3249C23.254 27.812 23.7281 28.2991 24.2129 28.8266C24.2352 28.8421 24.2575 28.8575 24.3023 28.9212C24.7931 29.4216 25.2838 29.9219 25.7958 30.4709C27.2955 32.0437 28.7953 33.6164 30.3159 35.2373C30.6034 35.5643 30.8611 35.9257 31.1869 36.2083C31.4852 36.4671 31.8572 36.6409 32.2571 36.8747C32.3426 36.8779 32.4282 36.881 32.5683 36.91C32.819 36.9679 33.0697 37.0259 33.3914 37.1003C33.1658 37.4049 32.9982 37.6312 32.8276 37.8614C33.1702 38.2045 33.4794 38.5141 33.8042 38.8733C33.903 38.9808 33.9964 39.0938 34.1015 39.1948C34.4711 39.5497 34.8598 39.8862 35.2128 40.2568C35.6284 40.693 36.0144 41.1576 36.4359 41.659C36.6243 41.8492 36.8128 42.0394 37.0255 42.2773C37.3352 42.5844 37.645 42.8916 37.9784 43.2468C38.1948 43.4591 38.4113 43.6714 38.5811 43.8379C38.775 43.6166 38.9301 43.4395 39.0965 43.319C39.3563 43.8122 39.6161 44.3055 39.8868 44.8543C40.2469 45.3743 40.607 45.8943 40.9896 46.4642C41.2748 46.7662 41.5076 47.1433 42.0117 47.2291C42.0429 46.7436 41.7519 46.5392 41.4364 46.2879C41.2625 46.1282 41.0654 45.9862 40.9256 45.8008C40.8633 45.7182 40.9165 45.5483 40.9173 45.418C41.0459 45.4326 41.2169 45.4003 41.2946 45.4709C41.4858 45.6444 41.634 45.8653 41.8145 46.1182C41.9403 46.2413 42.066 46.3644 42.2181 46.5339C42.7248 46.8995 42.7458 47.4493 42.7601 48.0606C42.7986 48.2118 42.7965 48.3949 42.8845 48.5074C43.0398 48.7058 43.2465 48.9098 43.5201 48.5237C43.8281 48.3545 43.819 48.6693 43.8662 48.7903C44.0716 49.3171 44.3502 49.7203 45.0297 49.6938C45.0564 49.6928 45.0832 49.6917 45.1544 49.7336C45.4117 49.8086 45.4904 49.9357 45.4343 50.2324C45.3728 50.558 45.1121 50.971 45.6388 51.2606C45.9525 51.5718 46.2662 51.8829 46.5997 52.2418C46.7831 52.4295 46.9664 52.6172 47.172 52.8539C47.5111 53.2139 47.8502 53.5739 48.2099 53.982C48.3415 54.1209 48.4731 54.2598 48.6251 54.4475C49.0129 54.8634 49.4007 55.2794 49.8074 55.741C49.8999 55.8335 49.9924 55.926 50.1076 56.0683C50.5325 56.5081 50.9573 56.948 51.4003 57.431C51.4686 57.4937 51.537 57.5563 51.633 57.6664C52.0879 58.0962 52.5428 58.526 53.0228 58.999C53.1144 59.0706 53.206 59.1421 53.3256 59.2603C53.7484 59.5344 54.1712 59.8086 54.6665 60.1028C55.1739 60.105 55.6812 60.1072 56.2587 60.1367C56.772 60.1603 57.2853 60.1838 57.8703 60.2267C58.3758 60.2402 58.8813 60.2538 59.4466 60.2941C59.9625 60.2545 60.4784 60.2149 61.0565 60.1769C61.5857 60.0454 62.0593 59.8522 62.1679 59.1701C62.5762 58.1148 62.9845 57.0595 63.4323 55.9642C63.6275 55.4444 63.8228 54.9245 64.048 54.354C64.3371 53.3037 64.6262 52.2533 64.9508 51.1531C65.0163 50.6359 65.0818 50.1186 65.1654 49.537C65.1895 49.1546 65.2277 48.7723 65.2284 48.3899C65.2286 48.2817 65.146 48.1338 65.0552 48.0714C64.239 47.5103 63.4124 46.9643 62.5654 46.3932C62.5654 46.3932 62.5347 46.3868 62.5021 46.3425C61.9976 46.017 61.4931 45.6915 60.9557 45.3241C60.7084 45.145 60.4612 44.9659 60.1804 44.7405C59.9373 44.647 59.6967 44.4835 59.4505 44.4747C58.9262 44.4557 58.3983 44.5082 57.8731 44.5477C57.2448 44.595 57.0896 44.485 56.9472 43.8023C57.3026 43.8023 57.6483 43.8023 58.1116 43.8023C57.9402 43.5158 57.8239 43.3216 57.684 43.0788C57.2179 42.7686 56.7519 42.4584 56.2544 42.1039C55.9791 41.9323 55.7037 41.7608 55.3955 41.5425C55.1287 41.3717 54.8619 41.201 54.5671 40.9846C54.0643 40.6568 53.5615 40.329 53.0287 39.9586C52.4831 39.6014 51.9375 39.2441 51.3538 38.8477C51.1105 38.6916 50.8671 38.5356 50.591 38.3349C50.3277 38.164 50.0644 37.9931 49.7707 37.7784C48.7482 37.0973 47.7257 36.4161 46.6699 35.6911C46.4086 35.5244 46.1472 35.3577 45.8562 35.1454C45.5705 34.9569 45.2847 34.7685 44.9577 34.5414C43.91 33.8392 42.8624 33.137 41.7817 32.3958C41.5744 32.2608 41.3672 32.1259 41.1297 31.9467C40.8201 31.7457 40.5105 31.5447 40.1717 31.2991C39.1146 30.5918 38.0576 29.8844 36.9729 29.1325C36.7455 28.9852 36.5181 28.8379 36.2582 28.6489C36.0013 28.4807 35.7445 28.3124 35.4574 28.0995C34.9758 27.772 34.5005 27.4347 34.0111 27.1195C33.4128 26.7343 32.8026 26.3677 32.1545 25.9544C31.7703 25.8642 31.3841 25.781 31.0029 25.6793C30.8921 25.6497 30.7431 25.5925 30.7007 25.5047C30.3838 24.8499 30.3909 24.8468 29.7011 24.9807C29.6399 24.9925 29.5773 24.9971 29.4763 25.0101C29.5119 24.5798 29.4303 24.2183 28.9685 23.9989C28.7442 23.7913 28.5626 23.938 28.3669 24.0601C28.1958 24.1667 27.9975 24.3228 27.8847 23.9225C27.7579 23.5383 27.6311 23.1541 27.4716 22.7261C27.2371 22.5823 27.0027 22.4385 26.7362 22.2524C26.4578 22.079 26.1795 21.9055 25.8701 21.6871C24.78 21.0166 23.6898 20.346 22.5607 19.6368C22.2537 19.4623 21.9467 19.2879 21.605 19.0692C21.4026 19.0096 21.2002 18.9499 20.932 18.8722ZM51.3222 20.4482C50.9992 20.5337 50.6762 20.6193 50.2928 20.7012C50.1256 20.7526 49.9585 20.8039 49.7261 20.8546C49.2149 20.9904 48.7037 21.1263 48.1278 21.2606C47.8079 21.345 47.4879 21.4295 47.0762 21.5382C47.5074 21.8599 47.8526 22.1174 48.2176 22.3957C48.2176 22.3957 48.2453 22.4027 48.2771 22.4479C48.7822 22.8295 49.2874 23.2111 49.8193 23.6378C49.991 23.7584 50.1628 23.879 50.364 24.0453C50.7062 24.2958 51.0483 24.5462 51.4186 24.8418C51.7738 25.0944 52.129 25.3471 52.5169 25.6448C53.2082 26.1527 53.8995 26.6607 54.6229 27.2059C54.6643 27.2308 54.7058 27.2558 54.7761 27.3253C55.2464 27.6608 55.7167 27.9963 56.2152 28.3759C56.5641 28.6348 56.913 28.8938 57.2735 29.1614C57.3529 29.0431 57.4052 28.9652 57.4888 28.8406C57.684 29.0639 57.9484 29.2303 57.9936 29.4432C58.1336 30.1036 58.7593 30.1781 59.1229 30.5784C59.5283 29.9141 59.9445 28.3116 60.0476 27.1307C60.1433 26.6177 60.2389 26.1047 60.3559 25.5311C60.4506 25.0155 60.5452 24.4999 60.6618 23.9204C60.7204 23.4603 60.7789 23.0002 60.843 22.4965C60.4836 22.6763 60.1896 22.8233 59.8199 23.0083C59.8902 22.7623 59.9293 22.6255 60.0084 22.4497C60.1917 22.148 60.3751 21.8463 60.5755 21.5164C59.6621 20.8519 58.7299 20.1739 57.7669 19.4502C57.2913 19.0597 56.7459 19.1177 56.1309 19.2C55.6159 19.3132 55.101 19.4263 54.5201 19.5506C54.0119 19.6989 53.5037 19.8473 52.933 19.9943C52.418 20.1441 51.903 20.294 51.3222 20.4482ZM29.162 59.7753C29.6299 59.5874 30.0978 59.3994 30.5697 59.2336C30.5697 59.2336 30.5922 59.2343 30.6559 59.224C31.171 59.0331 31.6862 58.8421 32.263 58.648C32.6584 58.5093 33.0537 58.3706 33.5498 58.1965C32.185 56.8621 30.8777 55.5839 29.5449 54.2607C29.3935 54.1191 29.2422 53.9775 29.0682 53.787C26.4393 51.2115 23.8712 48.5716 21.0424 46.1328C20.9852 46.3043 20.9445 46.4264 20.8662 46.5891C20.688 47.0207 20.5099 47.4522 20.2938 47.9263C20.0521 48.4849 19.8104 49.0434 19.5333 49.645C19.4632 49.8171 19.3931 49.9891 19.2786 50.1938C19.1329 50.5296 18.9873 50.8654 18.8021 51.24C18.5774 51.7612 18.3526 52.2823 18.087 52.8415C17.8168 53.4322 17.5065 54.0087 17.2899 54.6185C17.1339 55.0577 17.1028 55.5414 17.0077 56.0678C17.0452 56.607 17.327 56.9781 17.824 57.2641C18.0043 57.4028 18.1845 57.5414 18.3958 57.7233C18.6996 57.954 19.0034 58.1847 19.3349 58.4619C20.107 59.0243 20.8791 59.5866 21.6987 60.1834C21.8073 59.7891 21.8874 59.4985 22.0168 59.1975C22.0497 59.201 22.0826 59.2045 22.1076 59.2791C22.1687 59.6289 22.0008 60.1096 22.6624 60.1702C23.1215 60.284 23.6033 60.3537 23.9031 60.857C24.0906 60.9812 24.2688 61.1916 24.4675 61.2133C25.0414 61.2758 25.6062 61.181 26.1765 60.8775C26.5838 60.7169 26.9911 60.5564 27.4584 60.3943C28.0066 60.1907 28.5548 59.9871 29.162 59.7753Z" fill="white"/>
</svg>
