<svg width="20" height="20" viewBox="0 0 20 20" fill="none" xmlns="http://www.w3.org/2000/svg">
<path d="M4.99984 9.16669H8.33317M6.6665 7.50002V10.8334M12.4998 10H12.5082M14.9998 8.33335H15.0082M14.4332 4.16669H5.5665C4.74174 4.16688 3.94633 4.47283 3.33403 5.02541C2.72174 5.57798 2.33604 6.33793 2.2515 7.15835C2.2465 7.20169 2.24317 7.24252 2.23734 7.28502C2.16984 7.84669 1.6665 12.0467 1.6665 13.3334C1.6665 13.9964 1.9299 14.6323 2.39874 15.1011C2.86758 15.57 3.50346 15.8334 4.1665 15.8334C4.99984 15.8334 5.4165 15.4167 5.83317 15L7.0115 13.8217C7.32399 13.5091 7.74785 13.3334 8.18984 13.3334H11.8098C12.2518 13.3334 12.6757 13.5091 12.9882 13.8217L14.1665 15C14.5832 15.4167 14.9998 15.8334 15.8332 15.8334C16.4962 15.8334 17.1321 15.57 17.6009 15.1011C18.0698 14.6323 18.3332 13.9964 18.3332 13.3334C18.3332 12.0459 17.8298 7.84669 17.7623 7.28502C17.7565 7.24335 17.7532 7.20169 17.7482 7.15919C17.6638 6.33861 17.2782 5.57846 16.6659 5.02572C16.0536 4.47297 15.2581 4.1669 14.4332 4.16669Z" stroke="white" stroke-width="1.5" stroke-linecap="round" stroke-linejoin="round"/>
</svg>
