<svg width="20" height="20" viewBox="0 0 20 20" fill="none" xmlns="http://www.w3.org/2000/svg">
<g clip-path="url(#clip0_119_4790)">
<path d="M18.3333 9.99999C18.3333 14.6024 14.6023 18.3333 9.99996 18.3333M18.3333 9.99999C18.3333 5.39762 14.6023 1.66666 9.99996 1.66666M18.3333 9.99999H1.66663M9.99996 18.3333C5.39759 18.3333 1.66663 14.6024 1.66663 9.99999M9.99996 18.3333C12.0844 16.0514 13.2689 13.09 13.3333 9.99999C13.2689 6.91002 12.0844 3.94862 9.99996 1.66666M9.99996 18.3333C7.91556 16.0514 6.731 13.09 6.66663 9.99999C6.731 6.91002 7.91556 3.94862 9.99996 1.66666M1.66663 9.99999C1.66663 5.39762 5.39759 1.66666 9.99996 1.66666" stroke="white" stroke-opacity="0.75" stroke-width="1.5" stroke-linecap="round" stroke-linejoin="round"/>
</g>
<defs>
<clipPath id="clip0_119_4790">
<rect width="20" height="20" fill="white"/>
</clipPath>
</defs>
</svg>
