<svg width="20" height="20" viewBox="0 0 20 20" fill="none" xmlns="http://www.w3.org/2000/svg">
<path d="M12.5483 6.98181C11.8574 6.3212 10.9786 5.98483 9.99978 5.98483C8.26372 5.98483 6.79422 7.15716 6.26974 8.73251C6.13641 9.13251 6.06065 9.56055 6.06065 9.99995C6.06065 10.4393 6.13641 10.8666 6.26974 11.2666C6.79403 12.8423 8.26346 14.0152 9.99978 14.0152C10.8968 14.0152 11.6604 13.7788 12.2574 13.3788C12.9634 12.9061 13.4334 12.1999 13.5879 11.3666H10V8.78782H16.2788C16.3576 9.22419 16.4001 9.67873 16.4001 10.1515C16.4001 12.1818 15.6728 13.8909 14.4122 15.0515C13.3091 16.0697 11.7998 16.6667 9.99978 16.6667C7.39372 16.6667 5.13917 15.1727 4.0422 12.9939C3.59085 12.0941 3.33337 11.0755 3.33337 9.99995C3.33337 8.92426 3.59092 7.90614 4.04237 7.00619C5.13935 4.82739 7.39372 3.33331 9.99978 3.33331C11.7968 3.33331 13.3059 3.99392 14.4604 5.06968L12.5483 6.98181Z" fill="#4285F4"/>
</svg>
