<svg width="21" height="20" viewBox="0 0 21 20" fill="none" xmlns="http://www.w3.org/2000/svg">
<path d="M18 12.5L15.4283 9.92833C15.1158 9.61588 14.6919 9.44036 14.25 9.44036C13.8081 9.44036 13.3842 9.61588 13.0717 9.92833L5.5 17.5M4.66667 2.5H16.3333C17.2538 2.5 18 3.24619 18 4.16667V15.8333C18 16.7538 17.2538 17.5 16.3333 17.5H4.66667C3.74619 17.5 3 16.7538 3 15.8333V4.16667C3 3.24619 3.74619 2.5 4.66667 2.5ZM9.66667 7.5C9.66667 8.42047 8.92047 9.16667 8 9.16667C7.07953 9.16667 6.33333 8.42047 6.33333 7.5C6.33333 6.57953 7.07953 5.83333 8 5.83333C8.92047 5.83333 9.66667 6.57953 9.66667 7.5Z" stroke="white" stroke-opacity="0.75" stroke-width="1.5" stroke-linecap="round" stroke-linejoin="round"/>
</svg>
