<svg width="66" height="16" viewBox="0 0 66 16" fill="none" xmlns="http://www.w3.org/2000/svg">
<path fill-rule="evenodd" clip-rule="evenodd" d="M13.0195 8.54738C13.2601 8.25921 13.4935 7.98014 13.7261 7.7008C15.3894 5.70391 17.0524 3.70702 18.7157 1.71013C19.1547 1.18313 19.5929 0.655346 20.0351 0.130941C20.0678 0.0925197 20.1296 0.056694 20.1778 0.056694C21.7773 0.0527999 23.3772 0.0535787 24.9769 0.0535787C24.9922 0.0535787 25.0078 0.0559152 25.0416 0.0587709C25.0416 0.100048 25.0416 0.141326 25.0416 0.182343C25.0416 1.75478 25.0421 3.32669 25.0387 4.89913C25.0387 4.95936 25.0174 5.03283 24.9793 5.07774C23.5753 6.73974 22.1682 8.39888 20.7617 10.0583C20.7391 10.085 20.7144 10.1099 20.6721 10.1564C20.6721 8.82126 20.6721 7.50921 20.6721 6.19716C20.663 6.19405 20.6545 6.19093 20.6451 6.18808C18.1067 9.24208 15.568 12.2961 13.0187 15.3631C10.4844 12.2735 7.95895 9.19432 5.43324 6.11539C5.42545 6.11876 5.41714 6.12162 5.4091 6.12473C5.4091 9.40382 5.4091 12.6832 5.4091 15.9698C3.9039 15.9698 2.41142 15.9698 0.898438 15.9698C0.910379 10.6642 0.922581 5.35837 0.934782 0.0390408C0.981252 0.0367043 1.02305 0.0328103 1.06433 0.0328103C2.67181 0.0325506 4.27929 0.0330698 5.88677 0.0312526C5.96284 0.030993 6.0145 0.0502038 6.06564 0.112509C8.34472 2.88147 10.6264 5.64861 12.9078 8.41602C12.94 8.45522 12.9735 8.49338 13.0195 8.54738Z" fill="white"/>
<path fill-rule="evenodd" clip-rule="evenodd" d="M32.6504 7.44751C32.4355 7.70997 32.2249 7.96646 32.0146 8.22373C30.0224 10.6601 28.0302 13.0965 26.038 15.5332C25.9437 15.6485 25.8544 15.7684 25.7529 15.8772C25.7163 15.9166 25.6517 15.9496 25.5987 15.9512C25.2932 15.9595 24.9874 15.9579 24.6815 15.9592C23.376 15.9652 22.0707 15.9709 20.7654 15.9766C20.7308 15.9766 20.6961 15.9766 20.6444 15.9766C20.6444 15.9221 20.6444 15.8767 20.6444 15.8312C20.6444 14.5218 20.6449 13.2123 20.6426 11.9026C20.6423 11.8151 20.6652 11.7479 20.722 11.6809C21.809 10.3977 22.8941 9.11314 23.9798 7.82913C24.301 7.44881 24.6221 7.06848 24.9435 6.68816C24.9681 6.6596 24.9941 6.63183 25.0367 6.58406C25.0367 7.67155 25.0367 8.73438 25.0367 9.79721C25.045 9.80058 25.0533 9.80421 25.0616 9.80759C27.5943 6.75929 30.1273 3.71126 32.6722 0.64894C35.2119 3.71826 37.7452 6.7798 40.2787 9.84134C40.2872 9.83822 40.2956 9.83511 40.3041 9.83199C40.3041 6.56952 40.3041 3.30679 40.3041 0.0380859C41.7722 0.0380859 43.2255 0.0380859 44.6886 0.0380859C44.6886 5.35378 44.6886 10.6674 44.6886 15.9974C44.6434 15.9974 44.6019 15.9974 44.5606 15.9974C42.9843 15.9974 41.4082 15.9966 39.8322 15.9995C39.7449 15.9995 39.6899 15.9743 39.6341 15.9068C38.0619 13.9974 36.4876 12.09 34.9134 10.1825C34.1849 9.29954 33.4565 8.41688 32.7278 7.53422C32.706 7.50748 32.6816 7.4823 32.6504 7.44751Z" fill="white"/>
<path fill-rule="evenodd" clip-rule="evenodd" d="M56.1718 15.9772C56.1718 14.9444 56.1718 13.9302 56.1718 12.9013C56.2193 12.9013 56.2608 12.9013 56.3026 12.9013C56.8948 12.9013 57.4867 12.9026 58.0786 12.8993C58.1419 12.899 58.211 12.8827 58.2676 12.8538C58.9794 12.493 59.6889 12.1275 60.4008 11.7661C60.4724 11.73 60.5005 11.6892 60.4997 11.6064C60.4947 11.2222 60.4958 10.8383 60.4986 10.4538C60.4994 10.3837 60.4781 10.3408 60.4197 10.3003C59.9174 9.95196 59.4192 9.59837 58.9158 9.25154C58.8592 9.2126 58.7808 9.18716 58.7123 9.1869C57.0892 9.18352 55.4664 9.1843 53.8431 9.1843C53.7922 9.1843 53.7416 9.1843 53.6816 9.1843C53.6816 8.39302 53.6816 7.60745 53.6816 6.80553C53.7253 6.80553 53.7707 6.80553 53.8161 6.80553C55.4236 6.80553 57.0311 6.80631 58.638 6.80216C58.7219 6.80216 58.8156 6.77308 58.8873 6.72921C59.3875 6.42157 59.8823 6.10537 60.381 5.79488C60.4462 5.75412 60.4789 5.71285 60.4776 5.62951C60.4724 5.24166 60.4737 4.85355 60.4766 4.46544C60.4771 4.39898 60.4584 4.36134 60.3971 4.32837C59.6798 3.94311 58.9651 3.55344 58.2484 3.16819C58.1998 3.14223 58.1373 3.13106 58.0812 3.1308C57.4893 3.12821 56.8974 3.12925 56.3052 3.12925C56.2632 3.12925 56.2208 3.12925 56.1632 3.12925C56.1435 2.08433 56.1243 1.05136 56.1045 0.00644271C56.1523 0.00410627 56.1936 0.000212155 56.2349 0.000212155C58.0895 -4.74343e-05 59.9441 -0.000566614 61.7982 0.00228901C61.8605 0.00228901 61.9309 0.0209806 61.9844 0.0529122C63.1967 0.786819 64.4068 1.52436 65.6194 2.25853C65.6915 2.30214 65.7196 2.34679 65.7196 2.43272C65.7167 3.93039 65.7167 5.42806 65.7196 6.92547C65.7198 7.01322 65.6892 7.05657 65.616 7.09733C65.0854 7.3912 64.5576 7.68975 64.0142 7.99453C64.0641 8.02516 64.1028 8.04982 64.1422 8.07293C64.6388 8.36343 65.1352 8.65471 65.6334 8.94235C65.6954 8.97792 65.7191 9.01686 65.7191 9.08929C65.717 10.5908 65.717 12.0924 65.7188 13.594C65.7191 13.6646 65.6993 13.7059 65.637 13.7435C64.4392 14.4714 63.2432 15.2025 62.0456 15.9304C62.0015 15.9572 61.9444 15.9751 61.8935 15.9751C60.0155 15.9774 58.1375 15.9772 56.2595 15.9772C56.2331 15.9772 56.2063 15.9772 56.1718 15.9772Z" fill="white"/>
<path fill-rule="evenodd" clip-rule="evenodd" d="M45.465 4.35501C45.465 3.69015 45.4635 3.04347 45.4692 2.39706C45.4695 2.35837 45.5214 2.30749 45.5619 2.28361C46.2613 1.86694 46.9627 1.45391 47.6636 1.03983C48.2096 0.717662 48.755 0.393933 49.3031 0.0751367C49.3638 0.0400898 49.4412 0.0172445 49.5107 0.016985C51.3295 0.0141293 53.1483 0.0149081 54.9669 0.0146484C55.0095 0.0146484 55.052 0.0146484 55.1027 0.0146484C55.1027 1.06164 55.1027 2.09825 55.1027 3.15251C55.0588 3.15251 55.0134 3.15251 54.9682 3.15251C54.1489 3.15251 53.3298 3.15121 52.5105 3.15511C52.4409 3.15536 52.3633 3.17769 52.3033 3.21352C51.707 3.57385 51.1141 3.93989 50.518 4.30049C50.4648 4.33268 50.395 4.35267 50.3329 4.35293C48.7532 4.35552 47.1735 4.35501 45.5941 4.35501C45.5556 4.35501 45.5172 4.35501 45.465 4.35501Z" fill="white"/>
<path fill-rule="evenodd" clip-rule="evenodd" d="M55.1053 12.8688C55.1053 13.9192 55.1053 14.9498 55.1053 15.9979C55.0604 15.9979 55.0189 15.9979 54.9776 15.9979C53.1541 15.9979 51.3309 15.9984 49.5079 15.9958C49.4417 15.9955 49.3672 15.9763 49.3104 15.9428C48.058 15.2068 46.8075 14.4675 45.5562 13.7297C45.4994 13.6962 45.4607 13.6671 45.4609 13.5882C45.4651 12.969 45.4633 12.3493 45.4635 11.7299C45.4635 11.7105 45.4661 11.6912 45.4692 11.6544C45.5116 11.6544 45.5534 11.6544 45.5946 11.6544C47.171 11.6544 48.747 11.6536 50.3234 11.6567C50.389 11.657 50.4625 11.6796 50.5191 11.7136C51.1123 12.0721 51.7016 12.4371 52.2959 12.7941C52.3678 12.8377 52.462 12.8652 52.5461 12.8657C53.3496 12.8709 54.1533 12.8688 54.9573 12.8688C55.0033 12.8688 55.0498 12.8688 55.1053 12.8688Z" fill="white"/>
</svg>
