<svg width="24" height="24" viewBox="0 0 24 24" fill="none" xmlns="http://www.w3.org/2000/svg">
<path d="M20.91 8.83998L8.56 2.22998C8.28129 2.08201 7.97055 2.00464 7.655 2.00464C7.33945 2.00464 7.02871 2.08201 6.75 2.22998L3.1 4.12998C2.77089 4.31033 2.49556 4.5748 2.30213 4.89639C2.1087 5.21798 2.00409 5.58515 1.99901 5.9604C1.99392 6.33564 2.08854 6.70551 2.27319 7.03222C2.45784 7.35893 2.7259 7.63078 3.05 7.81998L15.27 14.75C15.5668 14.9146 15.9006 15.0009 16.24 15.0009C16.5794 15.0009 16.9132 14.9146 17.21 14.75L21 12.51C21.3174 12.316 21.5782 12.0419 21.7562 11.7153C21.9342 11.3886 22.0231 11.0209 22.0139 10.649C22.0048 10.2771 21.898 9.91419 21.7042 9.59665C21.5105 9.27911 21.2365 9.01815 20.91 8.83998V8.83998Z" stroke="white" stroke-opacity="0.75" stroke-width="1.5" stroke-linecap="round" stroke-linejoin="round"/>
<path d="M3.09 8.83998L15.44 2.22998C15.7187 2.08201 16.0294 2.00464 16.345 2.00464C16.6606 2.00464 16.9713 2.08201 17.25 2.22998L20.9 4.12998C21.2318 4.30577 21.5109 4.56652 21.7088 4.88556C21.9068 5.2046 22.0164 5.57048 22.0266 5.9458C22.0368 6.32112 21.9471 6.6924 21.7667 7.0217C21.5863 7.35099 21.3217 7.62647 21 7.81998L8.73 14.75C8.4332 14.9146 8.09939 15.0009 7.76 15.0009C7.42061 15.0009 7.0868 14.9146 6.79 14.75L3 12.51C2.68258 12.316 2.42178 12.0419 2.2438 11.7153C2.06582 11.3886 1.97693 11.0209 1.98605 10.649C1.99517 10.2771 2.10198 9.91419 2.29576 9.59665C2.48953 9.27911 2.76345 9.01815 3.09 8.83998V8.83998Z" stroke="white" stroke-opacity="0.75" stroke-width="1.5" stroke-linecap="round" stroke-linejoin="round"/>
<path d="M12 22V13" stroke="white" stroke-opacity="0.75" stroke-width="1.5" stroke-linecap="round" stroke-linejoin="round"/>
<path d="M20 13.5V16.87C20.0004 17.2474 19.8971 17.6178 19.7013 17.9405C19.5056 18.2632 19.2249 18.5259 18.89 18.7L12.89 21.78C12.6151 21.9229 12.3098 21.9975 12 21.9975C11.6902 21.9975 11.3849 21.9229 11.11 21.78L5.11 18.7C4.77508 18.5259 4.49443 18.2632 4.29868 17.9405C4.10293 17.6178 3.99961 17.2474 4 16.87V13.5" stroke="white" stroke-opacity="0.75" stroke-width="1.5" stroke-linecap="round" stroke-linejoin="round"/>
</svg>
