<svg width="16" height="16" viewBox="0 0 16 16" fill="none" xmlns="http://www.w3.org/2000/svg">
<path fill-rule="evenodd" clip-rule="evenodd" d="M6.71977 3.99998H4.66634V8.66665H5.81464V7.05019H6.72652C7.03273 7.05019 7.2714 6.98763 7.44252 6.86252C7.61814 6.7374 7.70595 6.52147 7.70595 6.21472V4.85967C7.70595 4.59328 7.63615 4.38341 7.49656 4.23004C7.36146 4.07667 7.10253 3.99998 6.71977 3.99998ZM5.81464 6.29948V4.72648H6.24018C6.37077 4.72648 6.46759 4.74666 6.53064 4.78702C6.59368 4.82334 6.6252 4.89801 6.6252 5.01102V5.63459C6.6252 5.73146 6.6207 6.06337 6.61169 6.1118C6.60269 6.1562 6.56891 6.19858 6.51037 6.23894C6.45183 6.2793 6.36402 6.29948 6.24694 6.29948H5.81464Z" fill="#E62C1B"/>
<path d="M11.333 7.36501V6.9836H10.1712V7.51636C10.1712 7.66973 10.1464 7.77871 10.0969 7.84328C10.0474 7.90786 9.9483 7.94015 9.79969 7.94015C9.63758 7.94015 9.53176 7.90786 9.48222 7.84328C9.43719 7.77871 9.41468 7.66973 9.41468 7.51636V5.1321C9.41468 5.00295 9.43944 4.90608 9.48898 4.8415C9.53851 4.77693 9.63308 4.74464 9.77267 4.74464C9.91677 4.74464 10.0181 4.77087 10.0766 4.82334C10.1397 4.87581 10.1712 4.96662 10.1712 5.09578V5.65881H11.306V5.14421C11.306 4.76482 11.1889 4.48027 10.9547 4.29058C10.7251 4.09685 10.3333 3.99998 9.77943 3.99998C8.77073 3.99998 8.26638 4.3713 8.26638 5.11394V7.61323C8.26638 7.96033 8.3722 8.22268 8.58385 8.40026C8.8 8.57785 9.18502 8.66665 9.7389 8.66665C10.3513 8.66665 10.7701 8.5718 10.9953 8.3821C11.2204 8.18837 11.333 7.84934 11.333 7.36501Z" fill="#E62C1B"/>
<path fill-rule="evenodd" clip-rule="evenodd" d="M1.33301 1.33331H14.6663V12H9.33301V13.3333H10.6663L11.9997 14V14.6666H3.99967V14L5.33301 13.3333H6.66634V12H1.33301V1.33331ZM2.66634 2.66665H13.333V9.99998H2.66634V2.66665Z" fill="#E62C1B"/>
<g style="mix-blend-mode:saturation" opacity="0.25">
<path fill-rule="evenodd" clip-rule="evenodd" d="M6.71977 3.99998H4.66634V8.66665H5.81464V7.05019H6.72652C7.03273 7.05019 7.2714 6.98763 7.44252 6.86252C7.61814 6.7374 7.70595 6.52147 7.70595 6.21472V4.85967C7.70595 4.59328 7.63615 4.38341 7.49656 4.23004C7.36146 4.07667 7.10253 3.99998 6.71977 3.99998ZM5.81464 6.29948V4.72648H6.24018C6.37077 4.72648 6.46759 4.74666 6.53064 4.78702C6.59368 4.82334 6.6252 4.89801 6.6252 5.01102V5.63459C6.6252 5.73146 6.6207 6.06337 6.61169 6.1118C6.60269 6.1562 6.56891 6.19858 6.51037 6.23894C6.45183 6.2793 6.36402 6.29948 6.24694 6.29948H5.81464Z" fill="white"/>
<path d="M11.333 7.36501V6.9836H10.1712V7.51636C10.1712 7.66973 10.1464 7.77871 10.0969 7.84328C10.0474 7.90786 9.9483 7.94015 9.79969 7.94015C9.63758 7.94015 9.53176 7.90786 9.48222 7.84328C9.43719 7.77871 9.41468 7.66973 9.41468 7.51636V5.1321C9.41468 5.00295 9.43944 4.90608 9.48898 4.8415C9.53851 4.77693 9.63308 4.74464 9.77267 4.74464C9.91677 4.74464 10.0181 4.77087 10.0766 4.82334C10.1397 4.87581 10.1712 4.96662 10.1712 5.09578V5.65881H11.306V5.14421C11.306 4.76482 11.1889 4.48027 10.9547 4.29058C10.7251 4.09685 10.3333 3.99998 9.77943 3.99998C8.77073 3.99998 8.26638 4.3713 8.26638 5.11394V7.61323C8.26638 7.96033 8.3722 8.22268 8.58385 8.40026C8.8 8.57785 9.18502 8.66665 9.7389 8.66665C10.3513 8.66665 10.7701 8.5718 10.9953 8.3821C11.2204 8.18837 11.333 7.84934 11.333 7.36501Z" fill="white"/>
<path fill-rule="evenodd" clip-rule="evenodd" d="M1.33301 1.33331H14.6663V12H9.33301V13.3333H10.6663L11.9997 14V14.6666H3.99967V14L5.33301 13.3333H6.66634V12H1.33301V1.33331ZM2.66634 2.66665H13.333V9.99998H2.66634V2.66665Z" fill="white"/>
</g>
</svg>
