<svg width="16" height="16" viewBox="0 0 16 16" fill="none" xmlns="http://www.w3.org/2000/svg">
<path d="M0.983773 10.7484C0.434857 11.1355 0.536493 11.8023 1.78885 12.2193C3.04121 12.6364 4.49684 12.7226 5.77763 12.4903C5.74106 12.4903 5.85083 12.4903 5.77763 12.4903V11.1742L4.53343 11.6C4.0577 11.7548 3.58198 11.7936 3.10625 11.6774C2.74031 11.5613 2.81349 11.329 3.25263 11.1355L5.77763 10.2064V8.77418L2.26458 10.0516C1.82545 10.2064 1.38631 10.4387 0.983773 10.7484ZM9.47368 4.94193V8.69678C10.974 9.47097 12.1451 8.69678 12.1451 6.68388C12.1451 4.63226 11.4498 3.70322 9.4371 2.96774C8.37583 2.58064 7.27803 2.23226 6.18019 2V13.1871L8.74181 14V4.59355C8.74181 4.16774 8.74181 3.85807 9.03455 3.97419C9.4371 4.09032 9.47368 4.51613 9.47368 4.94193ZM14.2309 9.85806C13.1697 9.47097 12.0353 9.31612 10.9375 9.43225C10.3277 9.47259 9.75546 9.65549 9.18094 9.85806V11.3678L11.5596 10.4387C12.0353 10.2839 12.511 10.2452 12.9868 10.3613C13.3527 10.4774 13.2795 10.7097 12.8404 10.9032L9.18094 12.3355V13.8064L14.2309 11.8322C14.5969 11.6774 14.9262 11.4839 15.219 11.1742C15.4752 10.7871 15.3654 10.2452 14.2309 9.85806Z" fill="#2873BD"/>
<g style="mix-blend-mode:saturation" opacity="0.25">
<path d="M0.983773 10.7484C0.434857 11.1355 0.536493 11.8023 1.78885 12.2193C3.04121 12.6364 4.49684 12.7226 5.77763 12.4903C5.74106 12.4903 5.85083 12.4903 5.77763 12.4903V11.1742L4.53343 11.6C4.0577 11.7548 3.58198 11.7936 3.10625 11.6774C2.74031 11.5613 2.81349 11.329 3.25263 11.1355L5.77763 10.2064V8.77418L2.26458 10.0516C1.82545 10.2064 1.38631 10.4387 0.983773 10.7484ZM9.47368 4.94193V8.69678C10.974 9.47097 12.1451 8.69678 12.1451 6.68388C12.1451 4.63226 11.4498 3.70322 9.4371 2.96774C8.37583 2.58064 7.27803 2.23226 6.18019 2V13.1871L8.74181 14V4.59355C8.74181 4.16774 8.74181 3.85807 9.03455 3.97419C9.4371 4.09032 9.47368 4.51613 9.47368 4.94193ZM14.2309 9.85806C13.1697 9.47097 12.0353 9.31612 10.9375 9.43225C10.3277 9.47259 9.75546 9.65549 9.18094 9.85806V11.3678L11.5596 10.4387C12.0353 10.2839 12.511 10.2452 12.9868 10.3613C13.3527 10.4774 13.2795 10.7097 12.8404 10.9032L9.18094 12.3355V13.8064L14.2309 11.8322C14.5969 11.6774 14.9262 11.4839 15.219 11.1742C15.4752 10.7871 15.3654 10.2452 14.2309 9.85806Z" fill="white"/>
</g>
</svg>
