<svg width="20" height="20" viewBox="0 0 20 20" fill="none" xmlns="http://www.w3.org/2000/svg">
<path d="M19 4.73077C18.325 5.07692 17.65 5.19231 16.8625 5.30769C17.65 4.84615 18.2125 4.15385 18.4375 3.23077C17.7625 3.69231 16.975 3.92308 16.075 4.15385C15.4 3.46154 14.3875 3 13.375 3C11.0125 3 9.2125 5.30769 9.775 7.61538C6.7375 7.5 4.0375 6 2.125 3.69231C1.1125 5.42308 1.675 7.61538 3.25 8.76923C2.6875 8.76923 2.125 8.53846 1.5625 8.30769C1.5625 10.0385 2.8 11.6538 4.4875 12.1154C3.925 12.2308 3.3625 12.3462 2.8 12.2308C3.25 13.7308 4.6 14.8846 6.2875 14.8846C4.9375 15.9231 2.9125 16.5 1 16.2692C2.6875 17.3077 4.6 18 6.625 18C13.4875 18 17.3125 12.1154 17.0875 6.69231C17.875 6.23077 18.55 5.53846 19 4.73077Z" fill="white"/>
</svg>
