<svg width="20" height="20" viewBox="0 0 20 20" fill="none" xmlns="http://www.w3.org/2000/svg">
<path d="M13.3334 17.5V15.8333C13.3334 14.9493 12.9822 14.1014 12.3571 13.4763C11.732 12.8512 10.8841 12.5 10.0001 12.5H5.00008C4.11603 12.5 3.26818 12.8512 2.64306 13.4763C2.01794 14.1014 1.66675 14.9493 1.66675 15.8333V17.5M15.8334 6.66667V11.6667M18.3334 9.16667H13.3334M10.8334 5.83333C10.8334 7.67428 9.34103 9.16667 7.50008 9.16667C5.65913 9.16667 4.16675 7.67428 4.16675 5.83333C4.16675 3.99238 5.65913 2.5 7.50008 2.5C9.34103 2.5 10.8334 3.99238 10.8334 5.83333Z" stroke="white" stroke-opacity="0.75" stroke-width="1.5" stroke-linecap="round" stroke-linejoin="round"/>
</svg>
