<svg width="20" height="20" viewBox="0 0 20 20" fill="none" xmlns="http://www.w3.org/2000/svg">
<path d="M3.33366 4.375C2.06801 4.375 1.04199 5.40101 1.04199 6.66667V13.3333C1.04199 14.599 2.06801 15.625 3.33366 15.625H11.667C12.9326 15.625 13.9587 14.599 13.9587 13.3333V11.1678L17.987 13.8534C18.1788 13.9812 18.4253 13.9931 18.6286 13.8844C18.8318 13.7756 18.9587 13.5638 18.9587 13.3333V6.66667C18.9587 6.43617 18.8318 6.22438 18.6286 6.11562C18.4253 6.00686 18.1788 6.01878 17.987 6.14664L13.9587 8.83218V6.66667C13.9587 5.40101 12.9326 4.375 11.667 4.375H3.33366Z" fill="white" fill-opacity="0.5"/>
</svg>
