<svg width="68" height="16" viewBox="0 0 68 16" fill="none" xmlns="http://www.w3.org/2000/svg">
<path fill-rule="evenodd" clip-rule="evenodd" d="M1.44544 8.87383L1.45454 9.04806L2.39334 15.9396L4.84178 15.95H5.12394H6.69598L7.36173 6.70755C7.38253 6.36298 7.30842 6.31747 7.59058 6.28886L8.29013 15.9513H12.6006C12.8489 14.7381 12.9426 13.2896 13.1207 12.0504C13.3183 10.7176 14.3495 3.2787 14.3599 2.28789C14.3677 1.54412 14.3599 0.792559 14.3599 0.0474957L11.2301 0.0253906C11.1521 1.60524 11.0077 3.20589 10.8998 4.78183L10.5981 8.94274C10.5786 9.26911 10.6619 9.39394 10.4044 9.46286L9.66063 0.0305919H5.31508L5.10314 3.10706C5.09663 3.2501 5.11874 3.51795 5.02772 3.58557C5.10444 4.03287 4.75596 8.00654 4.68314 9.14298C4.66364 9.44855 4.71825 9.36923 4.55312 9.47066C4.40228 9.38094 4.45819 9.64619 4.41138 8.97005C4.39708 8.7789 4.38018 8.57996 4.36587 8.39402C4.28006 7.26017 3.84576 0.425878 3.74564 0.0656996L0.634058 0.0292918C0.634058 2.45692 0.562542 2.17996 0.87331 4.59849C1.05665 6.0236 1.2777 7.44611 1.44544 8.87383Z" fill="white"/>
<path fill-rule="evenodd" clip-rule="evenodd" d="M57.5052 15.9796H57.6937H58.1644H58.7924H58.9979L59.388 15.9874C59.4816 15.9289 59.4348 15.9757 59.4569 15.8574V13.3569V13.1554V0.0849392L56.3921 0.0745372L56.3713 7.00765C56.0631 6.98815 56.1724 7.04666 55.9422 6.3211L55.0879 3.62691C54.8877 3.01708 54.7095 2.45666 54.5171 1.83512C54.3663 1.35142 54.127 0.447719 53.9372 0.0693359H50.8997L50.875 15.9796H53.9567V9.0569C54.2882 9.0413 54.2882 9.40668 54.3767 9.69274C54.7915 11.0203 56.1503 15.0564 56.3648 15.9796H57.5052Z" fill="white"/>
<path fill-rule="evenodd" clip-rule="evenodd" d="M26.4847 2.90691H27.0048C27.6355 2.90691 27.7304 2.8328 28.0112 3.07985V5.5881C28.0112 6.00419 28.1166 6.75836 27.8045 6.88838H26.5042L26.4925 3.41663V2.91081L26.4847 2.90691ZM22.9609 15.9098H26.4509L26.4444 9.93625C26.473 9.7165 26.4444 9.83743 26.5185 9.75681L26.8631 9.76591L28.3246 14.2142L28.4052 14.4807L28.8733 15.9111H31.9342V13.6499L30.0878 8.64767C31.4232 7.81809 31.5532 7.38639 31.5532 5.46587C31.5532 4.2215 31.7431 2.13064 31.2125 1.14243C30.5507 -0.0915414 29.3336 0.0306854 27.6355 0.0306854C26.0751 0.0306854 24.5148 0.0306854 22.9648 0.0306854L22.9609 15.9098Z" fill="white"/>
<path fill-rule="evenodd" clip-rule="evenodd" d="M45.344 2.9176C45.8993 2.9176 46.6183 2.78757 46.7054 3.22577V11.6893C46.7054 12.3161 46.8355 13.1014 46.3505 13.1014C45.3908 13.1014 45.1516 13.2146 45.1516 12.5605C45.1516 9.62317 45.1048 6.05129 45.1711 3.10354L45.344 2.9215V2.9176ZM43.3208 0.106384C41.2988 0.677209 41.6395 2.84608 41.6304 4.52735C41.6304 6.5792 41.6304 8.63192 41.6304 10.6855C41.6304 12.5683 41.2494 14.7918 42.7175 15.6799C43.4456 16.1194 44.3506 15.9712 45.4741 15.9712C46.0709 15.9712 48.1318 16.0505 48.5635 15.9464C48.8951 15.8671 49.3034 15.5668 49.4932 15.3886C50.4411 14.5044 50.2123 12.8765 50.2123 11.4878C50.2123 10.0991 50.2877 3.32979 50.1928 2.28046C50.1057 1.32085 49.739 0.720119 49.0928 0.344337C48.596 0.0569738 48.5297 0.0621747 47.9004 0.0647753C47.102 0.0764778 43.616 0.0231661 43.3208 0.106384Z" fill="white"/>
<path fill-rule="evenodd" clip-rule="evenodd" d="M17.479 9.33966C17.4855 8.5803 17.6208 7.61158 17.6897 6.83141C17.7274 6.41792 17.7612 6.00443 17.8015 5.58834C17.8223 5.3764 17.8379 5.18655 17.8535 4.96811C17.8756 4.64303 17.7989 4.57802 18.0486 4.52081L18.5466 9.5048C18.4386 9.64523 17.6208 9.57631 17.4387 9.54381L17.479 9.33966ZM14.6912 5.99403C14.6834 6.10846 14.7146 6.27879 14.6067 6.27879C14.6665 6.69488 14.2296 9.09131 14.1386 9.69984C14.0164 10.5203 13.6185 12.4421 13.6562 13.143C13.6094 14.0324 13.6367 15.0089 13.638 15.9191H16.6846C16.9446 15.8918 16.7899 15.9295 16.929 15.8281L17.167 12.879L18.8391 12.8543L19.0992 15.9516H22.3759C22.6802 13.9882 21.8727 9.74145 21.5736 7.78972L20.6907 1.95795C20.6387 1.62117 20.5919 1.30781 20.5438 0.981435C20.5178 0.811097 20.4931 0.661564 20.4697 0.487326C20.406 -0.00288088 20.4502 0.0699352 20.2851 0.0283261C19.5439 0.0283261 16.0123 -0.0587929 15.5871 0.0725358L14.6912 5.99403Z" fill="white"/>
<path fill-rule="evenodd" clip-rule="evenodd" d="M36.8415 3.77645L36.7193 4.02351L34.1187 9.53541C33.704 10.4365 33.2658 11.4143 32.8185 12.2777C32.4284 13.0319 32.4219 12.9656 32.4219 13.9239C32.4219 14.6052 32.4219 15.2866 32.4219 15.9679L41.0038 15.977V12.6613H36.4189L39.1495 6.85162C39.6046 5.86211 40.0597 4.909 40.5304 3.93769C40.8984 3.16922 41.0064 3.23813 41.0064 2.23171C41.0064 1.62708 41.0649 0.631064 40.9855 0.0732422H32.4414L32.4258 3.38377L37.0158 3.39027L36.8415 3.77645Z" fill="white"/>
<path fill-rule="evenodd" clip-rule="evenodd" d="M60.2168 15.9807H60.8201H61.1959H67.371V12.6649H63.7211L63.6964 9.80432L63.7224 9.60018H66.5011C66.6701 9.52086 66.5661 9.65349 66.6233 9.45975L66.9874 6.29355H63.6977V3.38872H67.3528L67.3736 3.25869V3.07275V0.128906H60.222L60.2168 15.9807Z" fill="white"/>
<path fill-rule="evenodd" clip-rule="evenodd" d="M60.1543 12.3256V12.418V15.7987C60.1764 16.0132 60.1543 15.8962 60.2167 15.9807V0.130271H67.3683C67.2551 -0.0257629 66.3202 0.0613563 66.1265 0.0613563C65.6961 0.0613563 65.2592 0.0613563 64.8262 0.0613563H64.0239H60.179L60.1543 12.3256Z" fill="white"/>
</svg>
