<svg width="16" height="16" viewBox="0 0 16 16" fill="none" xmlns="http://www.w3.org/2000/svg">
<path d="M7.99967 3.3063C7.16168 2.80696 6.17722 2.45321 5.12662 2.30807L5.08578 2.30364C5.05471 2.30142 5.01832 2.30009 4.98192 2.30009C4.70984 2.30009 4.45462 2.3711 4.23314 2.49582L4.24069 2.49183C5.28685 1.76657 6.5829 1.33337 7.98059 1.33337C7.98414 1.33337 7.98769 1.33337 7.99124 1.33337H7.99967C8.00189 1.33337 8.00456 1.33337 8.00766 1.33337C9.40891 1.33337 10.709 1.76657 11.7809 2.50603L11.7587 2.49139C11.5465 2.37066 11.2922 2.2992 11.021 2.2992C10.9833 2.2992 10.946 2.30053 10.9091 2.30319L10.914 2.30275C9.82258 2.45188 8.83811 2.8043 7.96328 3.32228L7.99967 3.3023V3.3063ZM3.36319 3.23661C3.34499 3.24283 3.32901 3.25082 3.31437 3.26058L3.31525 3.26014C2.09111 4.46875 1.33301 6.14696 1.33301 8.00226C1.33301 9.59303 1.89049 11.0537 2.82125 12.1998L2.81148 12.1873C2.03296 10.7399 4.79994 6.65916 6.1892 5.01513C4.6224 3.45233 3.84699 3.2122 3.51943 3.2122C3.51499 3.2122 3.51011 3.21176 3.50522 3.21176C3.45418 3.21176 3.40536 3.22108 3.36053 3.23839L3.36319 3.2375V3.23661ZM9.81192 5.01513C11.2007 6.66005 13.9695 10.7444 13.1874 12.1882C14.1084 11.0546 14.6663 9.59392 14.6663 8.0027C14.6663 6.14696 13.9078 4.46875 12.6837 3.26058L12.6828 3.25969C12.6699 3.25037 12.6548 3.24238 12.6384 3.23661L12.637 3.23617C12.5927 3.22019 12.5412 3.21131 12.4879 3.21131C12.4857 3.21131 12.483 3.21131 12.4808 3.21131C12.1519 3.21131 11.3783 3.45277 9.81192 5.01513ZM3.61175 13.0182C4.77775 14.0418 6.31614 14.6667 8.00056 14.6667C9.68498 14.6667 11.2234 14.0422 12.3969 13.012L12.3894 13.0187C13.432 11.9565 9.99168 8.18025 7.99967 6.67603C6.00988 8.18069 2.56692 11.9561 3.61175 13.0182Z" fill="#2C862C"/>
<g style="mix-blend-mode:saturation" opacity="0.25">
<path d="M7.99967 3.3063C7.16168 2.80696 6.17722 2.45321 5.12662 2.30807L5.08578 2.30364C5.05471 2.30142 5.01832 2.30009 4.98192 2.30009C4.70984 2.30009 4.45462 2.3711 4.23314 2.49582L4.24069 2.49183C5.28685 1.76657 6.5829 1.33337 7.98059 1.33337C7.98414 1.33337 7.98769 1.33337 7.99124 1.33337H7.99967C8.00189 1.33337 8.00456 1.33337 8.00766 1.33337C9.40891 1.33337 10.709 1.76657 11.7809 2.50603L11.7587 2.49139C11.5465 2.37066 11.2922 2.2992 11.021 2.2992C10.9833 2.2992 10.946 2.30053 10.9091 2.30319L10.914 2.30275C9.82258 2.45188 8.83811 2.8043 7.96328 3.32228L7.99967 3.3023V3.3063ZM3.36319 3.23661C3.34499 3.24283 3.32901 3.25082 3.31437 3.26058L3.31525 3.26014C2.09111 4.46875 1.33301 6.14696 1.33301 8.00226C1.33301 9.59303 1.89049 11.0537 2.82125 12.1998L2.81148 12.1873C2.03296 10.7399 4.79994 6.65916 6.1892 5.01513C4.6224 3.45233 3.84699 3.2122 3.51943 3.2122C3.51499 3.2122 3.51011 3.21176 3.50522 3.21176C3.45418 3.21176 3.40536 3.22108 3.36053 3.23839L3.36319 3.2375V3.23661ZM9.81192 5.01513C11.2007 6.66005 13.9695 10.7444 13.1874 12.1882C14.1084 11.0546 14.6663 9.59392 14.6663 8.0027C14.6663 6.14696 13.9078 4.46875 12.6837 3.26058L12.6828 3.25969C12.6699 3.25037 12.6548 3.24238 12.6384 3.23661L12.637 3.23617C12.5927 3.22019 12.5412 3.21131 12.4879 3.21131C12.4857 3.21131 12.483 3.21131 12.4808 3.21131C12.1519 3.21131 11.3783 3.45277 9.81192 5.01513ZM3.61175 13.0182C4.77775 14.0418 6.31614 14.6667 8.00056 14.6667C9.68498 14.6667 11.2234 14.0422 12.3969 13.012L12.3894 13.0187C13.432 11.9565 9.99168 8.18025 7.99967 6.67603C6.00988 8.18069 2.56692 11.9561 3.61175 13.0182Z" fill="white"/>
</g>
</svg>
